G04 #@! TF.GenerationSoftware,KiCad,Pcbnew,(6.99.0-3982-g8d40bf25d6)*
G04 #@! TF.CreationDate,2022-10-20T10:42:06+02:00*
G04 #@! TF.ProjectId,test,74657374-2e6b-4696-9361-645f70636258,rev?*
G04 #@! TF.SameCoordinates,Original*
G04 #@! TF.FileFunction,Copper,L2,Bot*
G04 #@! TF.FilePolarity,Positive*
%FSLAX46Y46*%
G04 Gerber Fmt 4.6, Leading zero omitted, Abs format (unit mm)*
G04 Created by KiCad (PCBNEW (6.99.0-3982-g8d40bf25d6)) date 2022-10-20 10:42:06*
%MOMM*%
%LPD*%
G01*
G04 APERTURE LIST*
G04 #@! TA.AperFunction,SMDPad,CuDef*
%ADD10R,1.000000X2.800000*%
G04 #@! TD*
G04 #@! TA.AperFunction,SMDPad,CuDef*
%ADD11R,0.600000X1.800000*%
G04 #@! TD*
G04 #@! TA.AperFunction,SMDPad,CuDef*
%ADD12R,1.498600X0.698500*%
G04 #@! TD*
G04 #@! TA.AperFunction,SMDPad,CuDef*
%ADD13R,0.599440X0.998220*%
G04 #@! TD*
G04 #@! TA.AperFunction,SMDPad,CuDef*
%ADD14R,0.797560X0.998220*%
G04 #@! TD*
G04 #@! TA.AperFunction,Conductor*
%ADD15C,0.250000*%
G04 #@! TD*
G04 APERTURE END LIST*
D10*
X62349999Y-116824999D03*
X57649999Y-116824999D03*
D11*
X59374999Y-120174999D03*
X60624999Y-120174999D03*
X51124999Y-120174999D03*
X49874999Y-120174999D03*
D10*
X48149999Y-116824999D03*
X52849999Y-116824999D03*
D12*
X65752479Y-95247899D03*
X65752479Y-93749299D03*
X65752479Y-90752099D03*
D13*
X68498219Y-96649979D03*
D14*
X66400179Y-96649979D03*
D13*
X68498219Y-89350019D03*
D14*
X66400179Y-89350019D03*
D15*
X65752480Y-93749300D02*
X64250700Y-93749300D01*
X64000000Y-121500000D02*
X63500000Y-122000000D01*
X64250700Y-93749300D02*
X63000000Y-95000000D01*
X63000000Y-95000000D02*
X63000000Y-114000000D01*
X61500000Y-122000000D02*
X60625000Y-121125000D01*
X63000000Y-114000000D02*
X64000000Y-115000000D01*
X60625000Y-121125000D02*
X60625000Y-120175000D01*
X64000000Y-115000000D02*
X64000000Y-121500000D01*
X63500000Y-122000000D02*
X61500000Y-122000000D01*
X51125000Y-120175000D02*
X51125000Y-121325000D01*
X56500000Y-113000000D02*
X61000000Y-113000000D01*
X51125000Y-121325000D02*
X51350000Y-121550000D01*
X51350000Y-121550000D02*
X53950000Y-121550000D01*
X53950000Y-121550000D02*
X55000000Y-120500000D01*
X62000000Y-112000000D02*
X62000000Y-92000000D01*
X55000000Y-120500000D02*
X55000000Y-114500000D01*
X55000000Y-114500000D02*
X56500000Y-113000000D01*
X61000000Y-113000000D02*
X62000000Y-112000000D01*
X62000000Y-92000000D02*
X63247900Y-90752100D01*
X63247900Y-90752100D02*
X65752480Y-90752100D01*
X50500000Y-122000000D02*
X58500000Y-122000000D01*
X49875000Y-120175000D02*
X49875000Y-121375000D01*
X49875000Y-121375000D02*
X50500000Y-122000000D01*
X58500000Y-122000000D02*
X59375000Y-121125000D01*
X59375000Y-121125000D02*
X59375000Y-120175000D01*
M02*
