G04 #@! TF.GenerationSoftware,KiCad,Pcbnew,(6.99.0-3982-g8d40bf25d6)*
G04 #@! TF.CreationDate,2022-10-20T10:42:07+02:00*
G04 #@! TF.ProjectId,test,74657374-2e6b-4696-9361-645f70636258,rev?*
G04 #@! TF.SameCoordinates,Original*
G04 #@! TF.FileFunction,Legend,Bot*
G04 #@! TF.FilePolarity,Positive*
%FSLAX46Y46*%
G04 Gerber Fmt 4.6, Leading zero omitted, Abs format (unit mm)*
G04 Created by KiCad (PCBNEW (6.99.0-3982-g8d40bf25d6)) date 2022-10-20 10:42:07*
%MOMM*%
%LPD*%
G01*
G04 APERTURE LIST*
%ADD10C,0.120000*%
%ADD11C,0.203200*%
G04 APERTURE END LIST*
D10*
X62225000Y-120375000D02*
X61625000Y-120675000D01*
X62225000Y-120975000D02*
X62225000Y-120375000D01*
X61625000Y-120675000D02*
X62225000Y-120975000D01*
X57550000Y-118725000D02*
X57050000Y-118725000D01*
X57550000Y-119425000D02*
X57550000Y-118725000D01*
X58700000Y-119425000D02*
X57550000Y-119425000D01*
X58700000Y-119925000D02*
X58700000Y-119425000D01*
X57050000Y-119925000D02*
X58700000Y-119925000D01*
X57050000Y-118725000D02*
X57050000Y-119925000D01*
X62450000Y-118725000D02*
X62950000Y-118725000D01*
X62450000Y-119425000D02*
X62450000Y-118725000D01*
X61300000Y-119425000D02*
X62450000Y-119425000D01*
X61300000Y-119925000D02*
X61300000Y-119425000D01*
X62950000Y-119925000D02*
X61300000Y-119925000D01*
X62950000Y-118725000D02*
X62950000Y-119925000D01*
X61250000Y-115875000D02*
X61250000Y-115375000D01*
X58750000Y-115875000D02*
X61250000Y-115875000D01*
X58750000Y-115375000D02*
X58750000Y-115875000D01*
X61250000Y-115375000D02*
X58750000Y-115375000D01*
X51750000Y-115375000D02*
X49250000Y-115375000D01*
X49250000Y-115375000D02*
X49250000Y-115875000D01*
X49250000Y-115875000D02*
X51750000Y-115875000D01*
X51750000Y-115875000D02*
X51750000Y-115375000D01*
X53450000Y-118725000D02*
X53450000Y-119925000D01*
X53450000Y-119925000D02*
X51800000Y-119925000D01*
X51800000Y-119925000D02*
X51800000Y-119425000D01*
X51800000Y-119425000D02*
X52950000Y-119425000D01*
X52950000Y-119425000D02*
X52950000Y-118725000D01*
X52950000Y-118725000D02*
X53450000Y-118725000D01*
X47550000Y-118725000D02*
X47550000Y-119925000D01*
X47550000Y-119925000D02*
X49200000Y-119925000D01*
X49200000Y-119925000D02*
X49200000Y-119425000D01*
X49200000Y-119425000D02*
X48050000Y-119425000D01*
X48050000Y-119425000D02*
X48050000Y-118725000D01*
X48050000Y-118725000D02*
X47550000Y-118725000D01*
X52125000Y-120675000D02*
X52725000Y-120975000D01*
X52725000Y-120975000D02*
X52725000Y-120375000D01*
X52725000Y-120375000D02*
X52125000Y-120675000D01*
D11*
X67926720Y-96474720D02*
X67073280Y-96474720D01*
X67926720Y-89525280D02*
X67073280Y-89525280D01*
X68924940Y-90302520D02*
X68924940Y-95697480D01*
X66075060Y-91374400D02*
X66075060Y-93127000D01*
M02*
