%TF.GenerationSoftware,KiCad,Pcbnew,(6.99.0-3982-g8d40bf25d6)*%
%TF.CreationDate,2022-10-20T10:41:58+02:00*%
%TF.ProjectId,test,74657374-2e6b-4696-9361-645f70636258,rev?*%
%TF.SameCoordinates,Original*%
%TF.FileFunction,Drillmap*%
%TF.FilePolarity,Positive*%
%FSLAX45Y45*%
G04 Gerber Fmt 4.5, Leading zero omitted, Abs format (unit mm)*
G04 Created by KiCad (PCBNEW (6.99.0-3982-g8d40bf25d6)) date 2022-10-20 10:41:58*
%MOMM*%
%LPD*%
G01*
G04 APERTURE LIST*
%ADD10C,0.050000*%
%ADD11C,0.200000*%
%ADD12C,0.089916*%
G04 APERTURE END LIST*
D10*
X6129020Y-8793480D02*
X6129020Y-11188700D01*
X6929120Y-8793480D02*
X6129020Y-8793480D01*
X6679423Y-12293406D02*
G75*
G03*
X6575000Y-12293406I-52211J135404D01*
G01*
X6575000Y-12293406D02*
X4479423Y-12293406D01*
X4479423Y-12293406D02*
G75*
G03*
X4375000Y-12293406I-52211J135404D01*
G01*
X6926580Y-12293600D02*
X6926580Y-10894060D01*
X4178300Y-11188700D02*
X4178300Y-12293600D01*
X6474460Y-9794240D02*
X6929120Y-9794240D01*
X4178300Y-12293600D02*
X4375000Y-12293406D01*
X6129020Y-11188700D02*
X4178300Y-11188700D01*
X6474460Y-10894060D02*
X6474460Y-9794240D01*
X6929120Y-9794240D02*
X6929120Y-8793480D01*
X6926580Y-12293600D02*
X6679423Y-12293406D01*
X6926580Y-10894060D02*
X6474460Y-10894060D01*
D11*
D12*
X6705042Y-9105182D02*
X6794958Y-9195098D01*
X6794958Y-9105182D02*
X6705042Y-9195098D01*
X6705042Y-9105182D02*
X6794958Y-9195098D01*
X6794958Y-9105182D02*
X6705042Y-9195098D01*
X6705042Y-9404902D02*
X6794958Y-9494818D01*
X6794958Y-9404902D02*
X6705042Y-9494818D01*
X6705042Y-9404902D02*
X6794958Y-9494818D01*
X6794958Y-9404902D02*
X6705042Y-9494818D01*
D11*
X4423419Y-12589576D02*
X4423419Y-12389576D01*
X4423419Y-12389576D02*
X4471038Y-12389576D01*
X4471038Y-12389576D02*
X4499610Y-12399100D01*
X4499610Y-12399100D02*
X4518657Y-12418148D01*
X4518657Y-12418148D02*
X4528181Y-12437195D01*
X4528181Y-12437195D02*
X4537705Y-12475290D01*
X4537705Y-12475290D02*
X4537705Y-12503862D01*
X4537705Y-12503862D02*
X4528181Y-12541957D01*
X4528181Y-12541957D02*
X4518657Y-12561005D01*
X4518657Y-12561005D02*
X4499610Y-12580052D01*
X4499610Y-12580052D02*
X4471038Y-12589576D01*
X4471038Y-12589576D02*
X4423419Y-12589576D01*
X4623419Y-12589576D02*
X4623419Y-12456243D01*
X4623419Y-12494338D02*
X4632943Y-12475290D01*
X4632943Y-12475290D02*
X4642467Y-12465767D01*
X4642467Y-12465767D02*
X4661514Y-12456243D01*
X4661514Y-12456243D02*
X4680562Y-12456243D01*
X4747229Y-12589576D02*
X4747229Y-12456243D01*
X4747229Y-12389576D02*
X4737705Y-12399100D01*
X4737705Y-12399100D02*
X4747229Y-12408624D01*
X4747229Y-12408624D02*
X4756752Y-12399100D01*
X4756752Y-12399100D02*
X4747229Y-12389576D01*
X4747229Y-12389576D02*
X4747229Y-12408624D01*
X4871038Y-12589576D02*
X4851990Y-12580052D01*
X4851990Y-12580052D02*
X4842467Y-12561005D01*
X4842467Y-12561005D02*
X4842467Y-12389576D01*
X4975800Y-12589576D02*
X4956752Y-12580052D01*
X4956752Y-12580052D02*
X4947229Y-12561005D01*
X4947229Y-12561005D02*
X4947229Y-12389576D01*
X5171990Y-12589576D02*
X5171990Y-12389576D01*
X5171990Y-12389576D02*
X5238657Y-12532433D01*
X5238657Y-12532433D02*
X5305324Y-12389576D01*
X5305324Y-12389576D02*
X5305324Y-12589576D01*
X5486276Y-12589576D02*
X5486276Y-12484814D01*
X5486276Y-12484814D02*
X5476752Y-12465767D01*
X5476752Y-12465767D02*
X5457705Y-12456243D01*
X5457705Y-12456243D02*
X5419609Y-12456243D01*
X5419609Y-12456243D02*
X5400562Y-12465767D01*
X5486276Y-12580052D02*
X5467229Y-12589576D01*
X5467229Y-12589576D02*
X5419609Y-12589576D01*
X5419609Y-12589576D02*
X5400562Y-12580052D01*
X5400562Y-12580052D02*
X5391038Y-12561005D01*
X5391038Y-12561005D02*
X5391038Y-12541957D01*
X5391038Y-12541957D02*
X5400562Y-12522909D01*
X5400562Y-12522909D02*
X5419609Y-12513386D01*
X5419609Y-12513386D02*
X5467229Y-12513386D01*
X5467229Y-12513386D02*
X5486276Y-12503862D01*
X5581514Y-12456243D02*
X5581514Y-12656243D01*
X5581514Y-12465767D02*
X5600562Y-12456243D01*
X5600562Y-12456243D02*
X5638657Y-12456243D01*
X5638657Y-12456243D02*
X5657705Y-12465767D01*
X5657705Y-12465767D02*
X5667228Y-12475290D01*
X5667228Y-12475290D02*
X5676752Y-12494338D01*
X5676752Y-12494338D02*
X5676752Y-12551481D01*
X5676752Y-12551481D02*
X5667228Y-12570528D01*
X5667228Y-12570528D02*
X5657705Y-12580052D01*
X5657705Y-12580052D02*
X5638657Y-12589576D01*
X5638657Y-12589576D02*
X5600562Y-12589576D01*
X5600562Y-12589576D02*
X5581514Y-12580052D01*
X5762467Y-12570528D02*
X5771990Y-12580052D01*
X5771990Y-12580052D02*
X5762467Y-12589576D01*
X5762467Y-12589576D02*
X5752943Y-12580052D01*
X5752943Y-12580052D02*
X5762467Y-12570528D01*
X5762467Y-12570528D02*
X5762467Y-12589576D01*
X5762467Y-12465767D02*
X5771990Y-12475290D01*
X5771990Y-12475290D02*
X5762467Y-12484814D01*
X5762467Y-12484814D02*
X5752943Y-12475290D01*
X5752943Y-12475290D02*
X5762467Y-12465767D01*
X5762467Y-12465767D02*
X5762467Y-12484814D01*
D12*
X4085884Y-12891142D02*
X4175800Y-12981058D01*
X4175800Y-12891142D02*
X4085884Y-12981058D01*
D11*
X4461514Y-12809576D02*
X4480562Y-12809576D01*
X4480562Y-12809576D02*
X4499610Y-12819100D01*
X4499610Y-12819100D02*
X4509133Y-12828624D01*
X4509133Y-12828624D02*
X4518657Y-12847671D01*
X4518657Y-12847671D02*
X4528181Y-12885767D01*
X4528181Y-12885767D02*
X4528181Y-12933386D01*
X4528181Y-12933386D02*
X4518657Y-12971481D01*
X4518657Y-12971481D02*
X4509133Y-12990528D01*
X4509133Y-12990528D02*
X4499610Y-13000052D01*
X4499610Y-13000052D02*
X4480562Y-13009576D01*
X4480562Y-13009576D02*
X4461514Y-13009576D01*
X4461514Y-13009576D02*
X4442467Y-13000052D01*
X4442467Y-13000052D02*
X4432943Y-12990528D01*
X4432943Y-12990528D02*
X4423419Y-12971481D01*
X4423419Y-12971481D02*
X4413895Y-12933386D01*
X4413895Y-12933386D02*
X4413895Y-12885767D01*
X4413895Y-12885767D02*
X4423419Y-12847671D01*
X4423419Y-12847671D02*
X4432943Y-12828624D01*
X4432943Y-12828624D02*
X4442467Y-12819100D01*
X4442467Y-12819100D02*
X4461514Y-12809576D01*
X4613895Y-12990528D02*
X4623419Y-13000052D01*
X4623419Y-13000052D02*
X4613895Y-13009576D01*
X4613895Y-13009576D02*
X4604371Y-13000052D01*
X4604371Y-13000052D02*
X4613895Y-12990528D01*
X4613895Y-12990528D02*
X4613895Y-13009576D01*
X4737705Y-12895290D02*
X4718657Y-12885767D01*
X4718657Y-12885767D02*
X4709133Y-12876243D01*
X4709133Y-12876243D02*
X4699610Y-12857195D01*
X4699610Y-12857195D02*
X4699610Y-12847671D01*
X4699610Y-12847671D02*
X4709133Y-12828624D01*
X4709133Y-12828624D02*
X4718657Y-12819100D01*
X4718657Y-12819100D02*
X4737705Y-12809576D01*
X4737705Y-12809576D02*
X4775800Y-12809576D01*
X4775800Y-12809576D02*
X4794848Y-12819100D01*
X4794848Y-12819100D02*
X4804371Y-12828624D01*
X4804371Y-12828624D02*
X4813895Y-12847671D01*
X4813895Y-12847671D02*
X4813895Y-12857195D01*
X4813895Y-12857195D02*
X4804371Y-12876243D01*
X4804371Y-12876243D02*
X4794848Y-12885767D01*
X4794848Y-12885767D02*
X4775800Y-12895290D01*
X4775800Y-12895290D02*
X4737705Y-12895290D01*
X4737705Y-12895290D02*
X4718657Y-12904814D01*
X4718657Y-12904814D02*
X4709133Y-12914338D01*
X4709133Y-12914338D02*
X4699610Y-12933386D01*
X4699610Y-12933386D02*
X4699610Y-12971481D01*
X4699610Y-12971481D02*
X4709133Y-12990528D01*
X4709133Y-12990528D02*
X4718657Y-13000052D01*
X4718657Y-13000052D02*
X4737705Y-13009576D01*
X4737705Y-13009576D02*
X4775800Y-13009576D01*
X4775800Y-13009576D02*
X4794848Y-13000052D01*
X4794848Y-13000052D02*
X4804371Y-12990528D01*
X4804371Y-12990528D02*
X4813895Y-12971481D01*
X4813895Y-12971481D02*
X4813895Y-12933386D01*
X4813895Y-12933386D02*
X4804371Y-12914338D01*
X4804371Y-12914338D02*
X4794848Y-12904814D01*
X4794848Y-12904814D02*
X4775800Y-12895290D01*
X4909133Y-13009576D02*
X4947229Y-13009576D01*
X4947229Y-13009576D02*
X4966276Y-13000052D01*
X4966276Y-13000052D02*
X4975800Y-12990528D01*
X4975800Y-12990528D02*
X4994848Y-12961957D01*
X4994848Y-12961957D02*
X5004371Y-12923862D01*
X5004371Y-12923862D02*
X5004371Y-12847671D01*
X5004371Y-12847671D02*
X4994848Y-12828624D01*
X4994848Y-12828624D02*
X4985324Y-12819100D01*
X4985324Y-12819100D02*
X4966276Y-12809576D01*
X4966276Y-12809576D02*
X4928181Y-12809576D01*
X4928181Y-12809576D02*
X4909133Y-12819100D01*
X4909133Y-12819100D02*
X4899610Y-12828624D01*
X4899610Y-12828624D02*
X4890086Y-12847671D01*
X4890086Y-12847671D02*
X4890086Y-12895290D01*
X4890086Y-12895290D02*
X4899610Y-12914338D01*
X4899610Y-12914338D02*
X4909133Y-12923862D01*
X4909133Y-12923862D02*
X4928181Y-12933386D01*
X4928181Y-12933386D02*
X4966276Y-12933386D01*
X4966276Y-12933386D02*
X4985324Y-12923862D01*
X4985324Y-12923862D02*
X4994848Y-12914338D01*
X4994848Y-12914338D02*
X5004371Y-12895290D01*
X5099610Y-13009576D02*
X5137705Y-13009576D01*
X5137705Y-13009576D02*
X5156752Y-13000052D01*
X5156752Y-13000052D02*
X5166276Y-12990528D01*
X5166276Y-12990528D02*
X5185324Y-12961957D01*
X5185324Y-12961957D02*
X5194848Y-12923862D01*
X5194848Y-12923862D02*
X5194848Y-12847671D01*
X5194848Y-12847671D02*
X5185324Y-12828624D01*
X5185324Y-12828624D02*
X5175800Y-12819100D01*
X5175800Y-12819100D02*
X5156752Y-12809576D01*
X5156752Y-12809576D02*
X5118657Y-12809576D01*
X5118657Y-12809576D02*
X5099610Y-12819100D01*
X5099610Y-12819100D02*
X5090086Y-12828624D01*
X5090086Y-12828624D02*
X5080562Y-12847671D01*
X5080562Y-12847671D02*
X5080562Y-12895290D01*
X5080562Y-12895290D02*
X5090086Y-12914338D01*
X5090086Y-12914338D02*
X5099610Y-12923862D01*
X5099610Y-12923862D02*
X5118657Y-12933386D01*
X5118657Y-12933386D02*
X5156752Y-12933386D01*
X5156752Y-12933386D02*
X5175800Y-12923862D01*
X5175800Y-12923862D02*
X5185324Y-12914338D01*
X5185324Y-12914338D02*
X5194848Y-12895290D01*
X5280562Y-13009576D02*
X5280562Y-12876243D01*
X5280562Y-12895290D02*
X5290086Y-12885767D01*
X5290086Y-12885767D02*
X5309133Y-12876243D01*
X5309133Y-12876243D02*
X5337705Y-12876243D01*
X5337705Y-12876243D02*
X5356752Y-12885767D01*
X5356752Y-12885767D02*
X5366276Y-12904814D01*
X5366276Y-12904814D02*
X5366276Y-13009576D01*
X5366276Y-12904814D02*
X5375800Y-12885767D01*
X5375800Y-12885767D02*
X5394848Y-12876243D01*
X5394848Y-12876243D02*
X5423419Y-12876243D01*
X5423419Y-12876243D02*
X5442467Y-12885767D01*
X5442467Y-12885767D02*
X5451991Y-12904814D01*
X5451991Y-12904814D02*
X5451991Y-13009576D01*
X5547229Y-13009576D02*
X5547229Y-12876243D01*
X5547229Y-12895290D02*
X5556752Y-12885767D01*
X5556752Y-12885767D02*
X5575800Y-12876243D01*
X5575800Y-12876243D02*
X5604371Y-12876243D01*
X5604371Y-12876243D02*
X5623419Y-12885767D01*
X5623419Y-12885767D02*
X5632943Y-12904814D01*
X5632943Y-12904814D02*
X5632943Y-13009576D01*
X5632943Y-12904814D02*
X5642467Y-12885767D01*
X5642467Y-12885767D02*
X5661514Y-12876243D01*
X5661514Y-12876243D02*
X5690086Y-12876243D01*
X5690086Y-12876243D02*
X5709133Y-12885767D01*
X5709133Y-12885767D02*
X5718657Y-12904814D01*
X5718657Y-12904814D02*
X5718657Y-13009576D01*
X6076752Y-12800052D02*
X5905324Y-13057195D01*
X6301514Y-12809576D02*
X6320562Y-12809576D01*
X6320562Y-12809576D02*
X6339610Y-12819100D01*
X6339610Y-12819100D02*
X6349133Y-12828624D01*
X6349133Y-12828624D02*
X6358657Y-12847671D01*
X6358657Y-12847671D02*
X6368181Y-12885767D01*
X6368181Y-12885767D02*
X6368181Y-12933386D01*
X6368181Y-12933386D02*
X6358657Y-12971481D01*
X6358657Y-12971481D02*
X6349133Y-12990528D01*
X6349133Y-12990528D02*
X6339610Y-13000052D01*
X6339610Y-13000052D02*
X6320562Y-13009576D01*
X6320562Y-13009576D02*
X6301514Y-13009576D01*
X6301514Y-13009576D02*
X6282467Y-13000052D01*
X6282467Y-13000052D02*
X6272943Y-12990528D01*
X6272943Y-12990528D02*
X6263419Y-12971481D01*
X6263419Y-12971481D02*
X6253895Y-12933386D01*
X6253895Y-12933386D02*
X6253895Y-12885767D01*
X6253895Y-12885767D02*
X6263419Y-12847671D01*
X6263419Y-12847671D02*
X6272943Y-12828624D01*
X6272943Y-12828624D02*
X6282467Y-12819100D01*
X6282467Y-12819100D02*
X6301514Y-12809576D01*
X6453895Y-12990528D02*
X6463419Y-13000052D01*
X6463419Y-13000052D02*
X6453895Y-13009576D01*
X6453895Y-13009576D02*
X6444371Y-13000052D01*
X6444371Y-13000052D02*
X6453895Y-12990528D01*
X6453895Y-12990528D02*
X6453895Y-13009576D01*
X6587229Y-12809576D02*
X6606276Y-12809576D01*
X6606276Y-12809576D02*
X6625324Y-12819100D01*
X6625324Y-12819100D02*
X6634848Y-12828624D01*
X6634848Y-12828624D02*
X6644371Y-12847671D01*
X6644371Y-12847671D02*
X6653895Y-12885767D01*
X6653895Y-12885767D02*
X6653895Y-12933386D01*
X6653895Y-12933386D02*
X6644371Y-12971481D01*
X6644371Y-12971481D02*
X6634848Y-12990528D01*
X6634848Y-12990528D02*
X6625324Y-13000052D01*
X6625324Y-13000052D02*
X6606276Y-13009576D01*
X6606276Y-13009576D02*
X6587229Y-13009576D01*
X6587229Y-13009576D02*
X6568181Y-13000052D01*
X6568181Y-13000052D02*
X6558657Y-12990528D01*
X6558657Y-12990528D02*
X6549133Y-12971481D01*
X6549133Y-12971481D02*
X6539610Y-12933386D01*
X6539610Y-12933386D02*
X6539610Y-12885767D01*
X6539610Y-12885767D02*
X6549133Y-12847671D01*
X6549133Y-12847671D02*
X6558657Y-12828624D01*
X6558657Y-12828624D02*
X6568181Y-12819100D01*
X6568181Y-12819100D02*
X6587229Y-12809576D01*
X6720562Y-12809576D02*
X6844371Y-12809576D01*
X6844371Y-12809576D02*
X6777705Y-12885767D01*
X6777705Y-12885767D02*
X6806276Y-12885767D01*
X6806276Y-12885767D02*
X6825324Y-12895290D01*
X6825324Y-12895290D02*
X6834848Y-12904814D01*
X6834848Y-12904814D02*
X6844371Y-12923862D01*
X6844371Y-12923862D02*
X6844371Y-12971481D01*
X6844371Y-12971481D02*
X6834848Y-12990528D01*
X6834848Y-12990528D02*
X6825324Y-13000052D01*
X6825324Y-13000052D02*
X6806276Y-13009576D01*
X6806276Y-13009576D02*
X6749133Y-13009576D01*
X6749133Y-13009576D02*
X6730086Y-13000052D01*
X6730086Y-13000052D02*
X6720562Y-12990528D01*
X7025324Y-12809576D02*
X6930086Y-12809576D01*
X6930086Y-12809576D02*
X6920562Y-12904814D01*
X6920562Y-12904814D02*
X6930086Y-12895290D01*
X6930086Y-12895290D02*
X6949133Y-12885767D01*
X6949133Y-12885767D02*
X6996752Y-12885767D01*
X6996752Y-12885767D02*
X7015800Y-12895290D01*
X7015800Y-12895290D02*
X7025324Y-12904814D01*
X7025324Y-12904814D02*
X7034848Y-12923862D01*
X7034848Y-12923862D02*
X7034848Y-12971481D01*
X7034848Y-12971481D02*
X7025324Y-12990528D01*
X7025324Y-12990528D02*
X7015800Y-13000052D01*
X7015800Y-13000052D02*
X6996752Y-13009576D01*
X6996752Y-13009576D02*
X6949133Y-13009576D01*
X6949133Y-13009576D02*
X6930086Y-13000052D01*
X6930086Y-13000052D02*
X6920562Y-12990528D01*
X7206276Y-12876243D02*
X7206276Y-13009576D01*
X7158657Y-12800052D02*
X7111038Y-12942909D01*
X7111038Y-12942909D02*
X7234848Y-12942909D01*
X7301514Y-12809576D02*
X7301514Y-12847671D01*
X7377705Y-12809576D02*
X7377705Y-12847671D01*
X7640562Y-13085767D02*
X7631038Y-13076243D01*
X7631038Y-13076243D02*
X7611991Y-13047671D01*
X7611991Y-13047671D02*
X7602467Y-13028624D01*
X7602467Y-13028624D02*
X7592943Y-13000052D01*
X7592943Y-13000052D02*
X7583419Y-12952433D01*
X7583419Y-12952433D02*
X7583419Y-12914338D01*
X7583419Y-12914338D02*
X7592943Y-12866719D01*
X7592943Y-12866719D02*
X7602467Y-12838148D01*
X7602467Y-12838148D02*
X7611991Y-12819100D01*
X7611991Y-12819100D02*
X7631038Y-12790528D01*
X7631038Y-12790528D02*
X7640562Y-12781005D01*
X7802467Y-12876243D02*
X7802467Y-13009576D01*
X7754848Y-12800052D02*
X7707229Y-12942909D01*
X7707229Y-12942909D02*
X7831038Y-12942909D01*
X8027229Y-13009576D02*
X8027229Y-12809576D01*
X8112943Y-13009576D02*
X8112943Y-12904814D01*
X8112943Y-12904814D02*
X8103419Y-12885767D01*
X8103419Y-12885767D02*
X8084372Y-12876243D01*
X8084372Y-12876243D02*
X8055800Y-12876243D01*
X8055800Y-12876243D02*
X8036752Y-12885767D01*
X8036752Y-12885767D02*
X8027229Y-12895290D01*
X8236752Y-13009576D02*
X8217705Y-13000052D01*
X8217705Y-13000052D02*
X8208181Y-12990528D01*
X8208181Y-12990528D02*
X8198657Y-12971481D01*
X8198657Y-12971481D02*
X8198657Y-12914338D01*
X8198657Y-12914338D02*
X8208181Y-12895290D01*
X8208181Y-12895290D02*
X8217705Y-12885767D01*
X8217705Y-12885767D02*
X8236752Y-12876243D01*
X8236752Y-12876243D02*
X8265324Y-12876243D01*
X8265324Y-12876243D02*
X8284372Y-12885767D01*
X8284372Y-12885767D02*
X8293895Y-12895290D01*
X8293895Y-12895290D02*
X8303419Y-12914338D01*
X8303419Y-12914338D02*
X8303419Y-12971481D01*
X8303419Y-12971481D02*
X8293895Y-12990528D01*
X8293895Y-12990528D02*
X8284372Y-13000052D01*
X8284372Y-13000052D02*
X8265324Y-13009576D01*
X8265324Y-13009576D02*
X8236752Y-13009576D01*
X8417705Y-13009576D02*
X8398657Y-13000052D01*
X8398657Y-13000052D02*
X8389134Y-12981005D01*
X8389134Y-12981005D02*
X8389134Y-12809576D01*
X8570086Y-13000052D02*
X8551038Y-13009576D01*
X8551038Y-13009576D02*
X8512943Y-13009576D01*
X8512943Y-13009576D02*
X8493895Y-13000052D01*
X8493895Y-13000052D02*
X8484372Y-12981005D01*
X8484372Y-12981005D02*
X8484372Y-12904814D01*
X8484372Y-12904814D02*
X8493895Y-12885767D01*
X8493895Y-12885767D02*
X8512943Y-12876243D01*
X8512943Y-12876243D02*
X8551038Y-12876243D01*
X8551038Y-12876243D02*
X8570086Y-12885767D01*
X8570086Y-12885767D02*
X8579610Y-12904814D01*
X8579610Y-12904814D02*
X8579610Y-12923862D01*
X8579610Y-12923862D02*
X8484372Y-12942909D01*
X8655800Y-13000052D02*
X8674848Y-13009576D01*
X8674848Y-13009576D02*
X8712943Y-13009576D01*
X8712943Y-13009576D02*
X8731991Y-13000052D01*
X8731991Y-13000052D02*
X8741515Y-12981005D01*
X8741515Y-12981005D02*
X8741515Y-12971481D01*
X8741515Y-12971481D02*
X8731991Y-12952433D01*
X8731991Y-12952433D02*
X8712943Y-12942909D01*
X8712943Y-12942909D02*
X8684372Y-12942909D01*
X8684372Y-12942909D02*
X8665324Y-12933386D01*
X8665324Y-12933386D02*
X8655800Y-12914338D01*
X8655800Y-12914338D02*
X8655800Y-12904814D01*
X8655800Y-12904814D02*
X8665324Y-12885767D01*
X8665324Y-12885767D02*
X8684372Y-12876243D01*
X8684372Y-12876243D02*
X8712943Y-12876243D01*
X8712943Y-12876243D02*
X8731991Y-12885767D01*
X8808181Y-13085767D02*
X8817705Y-13076243D01*
X8817705Y-13076243D02*
X8836753Y-13047671D01*
X8836753Y-13047671D02*
X8846276Y-13028624D01*
X8846276Y-13028624D02*
X8855800Y-13000052D01*
X8855800Y-13000052D02*
X8865324Y-12952433D01*
X8865324Y-12952433D02*
X8865324Y-12914338D01*
X8865324Y-12914338D02*
X8855800Y-12866719D01*
X8855800Y-12866719D02*
X8846276Y-12838148D01*
X8846276Y-12838148D02*
X8836753Y-12819100D01*
X8836753Y-12819100D02*
X8817705Y-12790528D01*
X8817705Y-12790528D02*
X8808181Y-12781005D01*
X9137705Y-13085767D02*
X9128181Y-13076243D01*
X9128181Y-13076243D02*
X9109134Y-13047671D01*
X9109134Y-13047671D02*
X9099610Y-13028624D01*
X9099610Y-13028624D02*
X9090086Y-13000052D01*
X9090086Y-13000052D02*
X9080562Y-12952433D01*
X9080562Y-12952433D02*
X9080562Y-12914338D01*
X9080562Y-12914338D02*
X9090086Y-12866719D01*
X9090086Y-12866719D02*
X9099610Y-12838148D01*
X9099610Y-12838148D02*
X9109134Y-12819100D01*
X9109134Y-12819100D02*
X9128181Y-12790528D01*
X9128181Y-12790528D02*
X9137705Y-12781005D01*
X9213895Y-12876243D02*
X9213895Y-13009576D01*
X9213895Y-12895290D02*
X9223419Y-12885767D01*
X9223419Y-12885767D02*
X9242467Y-12876243D01*
X9242467Y-12876243D02*
X9271038Y-12876243D01*
X9271038Y-12876243D02*
X9290086Y-12885767D01*
X9290086Y-12885767D02*
X9299610Y-12904814D01*
X9299610Y-12904814D02*
X9299610Y-13009576D01*
X9423419Y-13009576D02*
X9404372Y-13000052D01*
X9404372Y-13000052D02*
X9394848Y-12990528D01*
X9394848Y-12990528D02*
X9385324Y-12971481D01*
X9385324Y-12971481D02*
X9385324Y-12914338D01*
X9385324Y-12914338D02*
X9394848Y-12895290D01*
X9394848Y-12895290D02*
X9404372Y-12885767D01*
X9404372Y-12885767D02*
X9423419Y-12876243D01*
X9423419Y-12876243D02*
X9451991Y-12876243D01*
X9451991Y-12876243D02*
X9471038Y-12885767D01*
X9471038Y-12885767D02*
X9480562Y-12895290D01*
X9480562Y-12895290D02*
X9490086Y-12914338D01*
X9490086Y-12914338D02*
X9490086Y-12971481D01*
X9490086Y-12971481D02*
X9480562Y-12990528D01*
X9480562Y-12990528D02*
X9471038Y-13000052D01*
X9471038Y-13000052D02*
X9451991Y-13009576D01*
X9451991Y-13009576D02*
X9423419Y-13009576D01*
X9547229Y-12876243D02*
X9623419Y-12876243D01*
X9575800Y-12809576D02*
X9575800Y-12981005D01*
X9575800Y-12981005D02*
X9585324Y-13000052D01*
X9585324Y-13000052D02*
X9604372Y-13009576D01*
X9604372Y-13009576D02*
X9623419Y-13009576D01*
X9810086Y-12876243D02*
X9810086Y-13076243D01*
X9810086Y-12885767D02*
X9829134Y-12876243D01*
X9829134Y-12876243D02*
X9867229Y-12876243D01*
X9867229Y-12876243D02*
X9886276Y-12885767D01*
X9886276Y-12885767D02*
X9895800Y-12895290D01*
X9895800Y-12895290D02*
X9905324Y-12914338D01*
X9905324Y-12914338D02*
X9905324Y-12971481D01*
X9905324Y-12971481D02*
X9895800Y-12990528D01*
X9895800Y-12990528D02*
X9886276Y-13000052D01*
X9886276Y-13000052D02*
X9867229Y-13009576D01*
X9867229Y-13009576D02*
X9829134Y-13009576D01*
X9829134Y-13009576D02*
X9810086Y-13000052D01*
X10019610Y-13009576D02*
X10000562Y-13000052D01*
X10000562Y-13000052D02*
X9991038Y-12981005D01*
X9991038Y-12981005D02*
X9991038Y-12809576D01*
X10181515Y-13009576D02*
X10181515Y-12904814D01*
X10181515Y-12904814D02*
X10171991Y-12885767D01*
X10171991Y-12885767D02*
X10152943Y-12876243D01*
X10152943Y-12876243D02*
X10114848Y-12876243D01*
X10114848Y-12876243D02*
X10095800Y-12885767D01*
X10181515Y-13000052D02*
X10162467Y-13009576D01*
X10162467Y-13009576D02*
X10114848Y-13009576D01*
X10114848Y-13009576D02*
X10095800Y-13000052D01*
X10095800Y-13000052D02*
X10086276Y-12981005D01*
X10086276Y-12981005D02*
X10086276Y-12961957D01*
X10086276Y-12961957D02*
X10095800Y-12942909D01*
X10095800Y-12942909D02*
X10114848Y-12933386D01*
X10114848Y-12933386D02*
X10162467Y-12933386D01*
X10162467Y-12933386D02*
X10181515Y-12923862D01*
X10248181Y-12876243D02*
X10324372Y-12876243D01*
X10276753Y-12809576D02*
X10276753Y-12981005D01*
X10276753Y-12981005D02*
X10286276Y-13000052D01*
X10286276Y-13000052D02*
X10305324Y-13009576D01*
X10305324Y-13009576D02*
X10324372Y-13009576D01*
X10467229Y-13000052D02*
X10448181Y-13009576D01*
X10448181Y-13009576D02*
X10410086Y-13009576D01*
X10410086Y-13009576D02*
X10391038Y-13000052D01*
X10391038Y-13000052D02*
X10381515Y-12981005D01*
X10381515Y-12981005D02*
X10381515Y-12904814D01*
X10381515Y-12904814D02*
X10391038Y-12885767D01*
X10391038Y-12885767D02*
X10410086Y-12876243D01*
X10410086Y-12876243D02*
X10448181Y-12876243D01*
X10448181Y-12876243D02*
X10467229Y-12885767D01*
X10467229Y-12885767D02*
X10476753Y-12904814D01*
X10476753Y-12904814D02*
X10476753Y-12923862D01*
X10476753Y-12923862D02*
X10381515Y-12942909D01*
X10648181Y-13009576D02*
X10648181Y-12809576D01*
X10648181Y-13000052D02*
X10629134Y-13009576D01*
X10629134Y-13009576D02*
X10591038Y-13009576D01*
X10591038Y-13009576D02*
X10571991Y-13000052D01*
X10571991Y-13000052D02*
X10562467Y-12990528D01*
X10562467Y-12990528D02*
X10552943Y-12971481D01*
X10552943Y-12971481D02*
X10552943Y-12914338D01*
X10552943Y-12914338D02*
X10562467Y-12895290D01*
X10562467Y-12895290D02*
X10571991Y-12885767D01*
X10571991Y-12885767D02*
X10591038Y-12876243D01*
X10591038Y-12876243D02*
X10629134Y-12876243D01*
X10629134Y-12876243D02*
X10648181Y-12885767D01*
X10724372Y-13085767D02*
X10733896Y-13076243D01*
X10733896Y-13076243D02*
X10752943Y-13047671D01*
X10752943Y-13047671D02*
X10762467Y-13028624D01*
X10762467Y-13028624D02*
X10771991Y-13000052D01*
X10771991Y-13000052D02*
X10781515Y-12952433D01*
X10781515Y-12952433D02*
X10781515Y-12914338D01*
X10781515Y-12914338D02*
X10771991Y-12866719D01*
X10771991Y-12866719D02*
X10762467Y-12838148D01*
X10762467Y-12838148D02*
X10752943Y-12819100D01*
X10752943Y-12819100D02*
X10733896Y-12790528D01*
X10733896Y-12790528D02*
X10724372Y-12781005D01*
M02*
