%TF.GenerationSoftware,KiCad,Pcbnew,(6.99.0-3982-g8d40bf25d6)*%
%TF.CreationDate,2022-10-20T10:41:58+02:00*%
%TF.ProjectId,test,74657374-2e6b-4696-9361-645f70636258,rev?*%
%TF.SameCoordinates,Original*%
%TF.FileFunction,Drillmap*%
%TF.FilePolarity,Positive*%
%FSLAX45Y45*%
G04 Gerber Fmt 4.5, Leading zero omitted, Abs format (unit mm)*
G04 Created by KiCad (PCBNEW (6.99.0-3982-g8d40bf25d6)) date 2022-10-20 10:41:58*
%MOMM*%
%LPD*%
G01*
G04 APERTURE LIST*
%ADD10C,0.050000*%
%ADD11C,0.200000*%
G04 APERTURE END LIST*
D10*
X6129020Y-8793480D02*
X6129020Y-11188700D01*
X6929120Y-8793480D02*
X6129020Y-8793480D01*
X6679423Y-12293406D02*
G75*
G03*
X6575000Y-12293406I-52211J135404D01*
G01*
X6575000Y-12293406D02*
X4479423Y-12293406D01*
X4479423Y-12293406D02*
G75*
G03*
X4375000Y-12293406I-52211J135404D01*
G01*
X6926580Y-12293600D02*
X6926580Y-10894060D01*
X4178300Y-11188700D02*
X4178300Y-12293600D01*
X6474460Y-9794240D02*
X6929120Y-9794240D01*
X4178300Y-12293600D02*
X4375000Y-12293406D01*
X6129020Y-11188700D02*
X4178300Y-11188700D01*
X6474460Y-10894060D02*
X6474460Y-9794240D01*
X6929120Y-9794240D02*
X6929120Y-8793480D01*
X6926580Y-12293600D02*
X6679423Y-12293406D01*
X6926580Y-10894060D02*
X6474460Y-10894060D01*
D11*
X4423419Y-12589576D02*
X4423419Y-12389576D01*
X4423419Y-12389576D02*
X4471038Y-12389576D01*
X4471038Y-12389576D02*
X4499610Y-12399100D01*
X4499610Y-12399100D02*
X4518657Y-12418148D01*
X4518657Y-12418148D02*
X4528181Y-12437195D01*
X4528181Y-12437195D02*
X4537705Y-12475290D01*
X4537705Y-12475290D02*
X4537705Y-12503862D01*
X4537705Y-12503862D02*
X4528181Y-12541957D01*
X4528181Y-12541957D02*
X4518657Y-12561005D01*
X4518657Y-12561005D02*
X4499610Y-12580052D01*
X4499610Y-12580052D02*
X4471038Y-12589576D01*
X4471038Y-12589576D02*
X4423419Y-12589576D01*
X4623419Y-12589576D02*
X4623419Y-12456243D01*
X4623419Y-12494338D02*
X4632943Y-12475290D01*
X4632943Y-12475290D02*
X4642467Y-12465767D01*
X4642467Y-12465767D02*
X4661514Y-12456243D01*
X4661514Y-12456243D02*
X4680562Y-12456243D01*
X4747229Y-12589576D02*
X4747229Y-12456243D01*
X4747229Y-12389576D02*
X4737705Y-12399100D01*
X4737705Y-12399100D02*
X4747229Y-12408624D01*
X4747229Y-12408624D02*
X4756752Y-12399100D01*
X4756752Y-12399100D02*
X4747229Y-12389576D01*
X4747229Y-12389576D02*
X4747229Y-12408624D01*
X4871038Y-12589576D02*
X4851990Y-12580052D01*
X4851990Y-12580052D02*
X4842467Y-12561005D01*
X4842467Y-12561005D02*
X4842467Y-12389576D01*
X4975800Y-12589576D02*
X4956752Y-12580052D01*
X4956752Y-12580052D02*
X4947229Y-12561005D01*
X4947229Y-12561005D02*
X4947229Y-12389576D01*
X5171990Y-12589576D02*
X5171990Y-12389576D01*
X5171990Y-12389576D02*
X5238657Y-12532433D01*
X5238657Y-12532433D02*
X5305324Y-12389576D01*
X5305324Y-12389576D02*
X5305324Y-12589576D01*
X5486276Y-12589576D02*
X5486276Y-12484814D01*
X5486276Y-12484814D02*
X5476752Y-12465767D01*
X5476752Y-12465767D02*
X5457705Y-12456243D01*
X5457705Y-12456243D02*
X5419609Y-12456243D01*
X5419609Y-12456243D02*
X5400562Y-12465767D01*
X5486276Y-12580052D02*
X5467229Y-12589576D01*
X5467229Y-12589576D02*
X5419609Y-12589576D01*
X5419609Y-12589576D02*
X5400562Y-12580052D01*
X5400562Y-12580052D02*
X5391038Y-12561005D01*
X5391038Y-12561005D02*
X5391038Y-12541957D01*
X5391038Y-12541957D02*
X5400562Y-12522909D01*
X5400562Y-12522909D02*
X5419609Y-12513386D01*
X5419609Y-12513386D02*
X5467229Y-12513386D01*
X5467229Y-12513386D02*
X5486276Y-12503862D01*
X5581514Y-12456243D02*
X5581514Y-12656243D01*
X5581514Y-12465767D02*
X5600562Y-12456243D01*
X5600562Y-12456243D02*
X5638657Y-12456243D01*
X5638657Y-12456243D02*
X5657705Y-12465767D01*
X5657705Y-12465767D02*
X5667228Y-12475290D01*
X5667228Y-12475290D02*
X5676752Y-12494338D01*
X5676752Y-12494338D02*
X5676752Y-12551481D01*
X5676752Y-12551481D02*
X5667228Y-12570528D01*
X5667228Y-12570528D02*
X5657705Y-12580052D01*
X5657705Y-12580052D02*
X5638657Y-12589576D01*
X5638657Y-12589576D02*
X5600562Y-12589576D01*
X5600562Y-12589576D02*
X5581514Y-12580052D01*
X5762467Y-12570528D02*
X5771990Y-12580052D01*
X5771990Y-12580052D02*
X5762467Y-12589576D01*
X5762467Y-12589576D02*
X5752943Y-12580052D01*
X5752943Y-12580052D02*
X5762467Y-12570528D01*
X5762467Y-12570528D02*
X5762467Y-12589576D01*
X5762467Y-12465767D02*
X5771990Y-12475290D01*
X5771990Y-12475290D02*
X5762467Y-12484814D01*
X5762467Y-12484814D02*
X5752943Y-12475290D01*
X5752943Y-12475290D02*
X5762467Y-12465767D01*
X5762467Y-12465767D02*
X5762467Y-12484814D01*
M02*
