G04 #@! TF.GenerationSoftware,KiCad,Pcbnew,8.0.0-rc1-52-g27482ef8a0*
G04 #@! TF.CreationDate,2024-01-20T20:33:33+01:00*
G04 #@! TF.ProjectId,test,74657374-2e6b-4696-9361-645f70636258,rev?*
G04 #@! TF.SameCoordinates,Original*
G04 #@! TF.FileFunction,Legend,Bot*
G04 #@! TF.FilePolarity,Positive*
%FSLAX46Y46*%
G04 Gerber Fmt 4.6, Leading zero omitted, Abs format (unit mm)*
G04 Created by KiCad (PCBNEW 8.0.0-rc1-52-g27482ef8a0) date 2024-01-20 20:33:33*
%MOMM*%
%LPD*%
G01*
G04 APERTURE LIST*
%ADD10C,0.300000*%
%ADD11C,0.150000*%
%ADD12C,0.120000*%
%ADD13C,0.203200*%
%ADD14C,0.000000*%
G04 APERTURE END LIST*
D10*
X62570009Y-119578350D02*
X61427152Y-119578350D01*
X58427152Y-119578350D02*
X57284295Y-119578350D01*
X57855723Y-120149778D02*
X57855723Y-119006921D01*
D11*
X63520180Y-109599637D02*
X64520180Y-109599637D01*
X64520180Y-109599637D02*
X64520180Y-109361542D01*
X64520180Y-109361542D02*
X64472561Y-109218685D01*
X64472561Y-109218685D02*
X64377323Y-109123447D01*
X64377323Y-109123447D02*
X64282085Y-109075828D01*
X64282085Y-109075828D02*
X64091609Y-109028209D01*
X64091609Y-109028209D02*
X63948752Y-109028209D01*
X63948752Y-109028209D02*
X63758276Y-109075828D01*
X63758276Y-109075828D02*
X63663038Y-109123447D01*
X63663038Y-109123447D02*
X63567800Y-109218685D01*
X63567800Y-109218685D02*
X63520180Y-109361542D01*
X63520180Y-109361542D02*
X63520180Y-109599637D01*
X63567800Y-108218685D02*
X63520180Y-108313923D01*
X63520180Y-108313923D02*
X63520180Y-108504399D01*
X63520180Y-108504399D02*
X63567800Y-108599637D01*
X63567800Y-108599637D02*
X63663038Y-108647256D01*
X63663038Y-108647256D02*
X64043990Y-108647256D01*
X64043990Y-108647256D02*
X64139228Y-108599637D01*
X64139228Y-108599637D02*
X64186847Y-108504399D01*
X64186847Y-108504399D02*
X64186847Y-108313923D01*
X64186847Y-108313923D02*
X64139228Y-108218685D01*
X64139228Y-108218685D02*
X64043990Y-108171066D01*
X64043990Y-108171066D02*
X63948752Y-108171066D01*
X63948752Y-108171066D02*
X63853514Y-108647256D01*
X63567800Y-107790113D02*
X63520180Y-107694875D01*
X63520180Y-107694875D02*
X63520180Y-107504399D01*
X63520180Y-107504399D02*
X63567800Y-107409161D01*
X63567800Y-107409161D02*
X63663038Y-107361542D01*
X63663038Y-107361542D02*
X63710657Y-107361542D01*
X63710657Y-107361542D02*
X63805895Y-107409161D01*
X63805895Y-107409161D02*
X63853514Y-107504399D01*
X63853514Y-107504399D02*
X63853514Y-107647256D01*
X63853514Y-107647256D02*
X63901133Y-107742494D01*
X63901133Y-107742494D02*
X63996371Y-107790113D01*
X63996371Y-107790113D02*
X64043990Y-107790113D01*
X64043990Y-107790113D02*
X64139228Y-107742494D01*
X64139228Y-107742494D02*
X64186847Y-107647256D01*
X64186847Y-107647256D02*
X64186847Y-107504399D01*
X64186847Y-107504399D02*
X64139228Y-107409161D01*
X63520180Y-106932970D02*
X64186847Y-106932970D01*
X64520180Y-106932970D02*
X64472561Y-106980589D01*
X64472561Y-106980589D02*
X64424942Y-106932970D01*
X64424942Y-106932970D02*
X64472561Y-106885351D01*
X64472561Y-106885351D02*
X64520180Y-106932970D01*
X64520180Y-106932970D02*
X64424942Y-106932970D01*
X64186847Y-106028209D02*
X63377323Y-106028209D01*
X63377323Y-106028209D02*
X63282085Y-106075828D01*
X63282085Y-106075828D02*
X63234466Y-106123447D01*
X63234466Y-106123447D02*
X63186847Y-106218685D01*
X63186847Y-106218685D02*
X63186847Y-106361542D01*
X63186847Y-106361542D02*
X63234466Y-106456780D01*
X63567800Y-106028209D02*
X63520180Y-106123447D01*
X63520180Y-106123447D02*
X63520180Y-106313923D01*
X63520180Y-106313923D02*
X63567800Y-106409161D01*
X63567800Y-106409161D02*
X63615419Y-106456780D01*
X63615419Y-106456780D02*
X63710657Y-106504399D01*
X63710657Y-106504399D02*
X63996371Y-106504399D01*
X63996371Y-106504399D02*
X64091609Y-106456780D01*
X64091609Y-106456780D02*
X64139228Y-106409161D01*
X64139228Y-106409161D02*
X64186847Y-106313923D01*
X64186847Y-106313923D02*
X64186847Y-106123447D01*
X64186847Y-106123447D02*
X64139228Y-106028209D01*
X64186847Y-105552018D02*
X63520180Y-105552018D01*
X64091609Y-105552018D02*
X64139228Y-105504399D01*
X64139228Y-105504399D02*
X64186847Y-105409161D01*
X64186847Y-105409161D02*
X64186847Y-105266304D01*
X64186847Y-105266304D02*
X64139228Y-105171066D01*
X64139228Y-105171066D02*
X64043990Y-105123447D01*
X64043990Y-105123447D02*
X63520180Y-105123447D01*
X63567800Y-104266304D02*
X63520180Y-104361542D01*
X63520180Y-104361542D02*
X63520180Y-104552018D01*
X63520180Y-104552018D02*
X63567800Y-104647256D01*
X63567800Y-104647256D02*
X63663038Y-104694875D01*
X63663038Y-104694875D02*
X64043990Y-104694875D01*
X64043990Y-104694875D02*
X64139228Y-104647256D01*
X64139228Y-104647256D02*
X64186847Y-104552018D01*
X64186847Y-104552018D02*
X64186847Y-104361542D01*
X64186847Y-104361542D02*
X64139228Y-104266304D01*
X64139228Y-104266304D02*
X64043990Y-104218685D01*
X64043990Y-104218685D02*
X63948752Y-104218685D01*
X63948752Y-104218685D02*
X63853514Y-104694875D01*
X63520180Y-103361542D02*
X64520180Y-103361542D01*
X63567800Y-103361542D02*
X63520180Y-103456780D01*
X63520180Y-103456780D02*
X63520180Y-103647256D01*
X63520180Y-103647256D02*
X63567800Y-103742494D01*
X63567800Y-103742494D02*
X63615419Y-103790113D01*
X63615419Y-103790113D02*
X63710657Y-103837732D01*
X63710657Y-103837732D02*
X63996371Y-103837732D01*
X63996371Y-103837732D02*
X64091609Y-103790113D01*
X64091609Y-103790113D02*
X64139228Y-103742494D01*
X64139228Y-103742494D02*
X64186847Y-103647256D01*
X64186847Y-103647256D02*
X64186847Y-103456780D01*
X64186847Y-103456780D02*
X64139228Y-103361542D01*
X63520180Y-102123446D02*
X64520180Y-102123446D01*
X64139228Y-102123446D02*
X64186847Y-102028208D01*
X64186847Y-102028208D02*
X64186847Y-101837732D01*
X64186847Y-101837732D02*
X64139228Y-101742494D01*
X64139228Y-101742494D02*
X64091609Y-101694875D01*
X64091609Y-101694875D02*
X63996371Y-101647256D01*
X63996371Y-101647256D02*
X63710657Y-101647256D01*
X63710657Y-101647256D02*
X63615419Y-101694875D01*
X63615419Y-101694875D02*
X63567800Y-101742494D01*
X63567800Y-101742494D02*
X63520180Y-101837732D01*
X63520180Y-101837732D02*
X63520180Y-102028208D01*
X63520180Y-102028208D02*
X63567800Y-102123446D01*
X64186847Y-101313922D02*
X63520180Y-101075827D01*
X64186847Y-100837732D02*
X63520180Y-101075827D01*
X63520180Y-101075827D02*
X63282085Y-101171065D01*
X63282085Y-101171065D02*
X63234466Y-101218684D01*
X63234466Y-101218684D02*
X63186847Y-101313922D01*
X63520180Y-99694874D02*
X64520180Y-99694874D01*
X64139228Y-99694874D02*
X64186847Y-99599636D01*
X64186847Y-99599636D02*
X64186847Y-99409160D01*
X64186847Y-99409160D02*
X64139228Y-99313922D01*
X64139228Y-99313922D02*
X64091609Y-99266303D01*
X64091609Y-99266303D02*
X63996371Y-99218684D01*
X63996371Y-99218684D02*
X63710657Y-99218684D01*
X63710657Y-99218684D02*
X63615419Y-99266303D01*
X63615419Y-99266303D02*
X63567800Y-99313922D01*
X63567800Y-99313922D02*
X63520180Y-99409160D01*
X63520180Y-99409160D02*
X63520180Y-99599636D01*
X63520180Y-99599636D02*
X63567800Y-99694874D01*
X63520180Y-98647255D02*
X63567800Y-98742493D01*
X63567800Y-98742493D02*
X63615419Y-98790112D01*
X63615419Y-98790112D02*
X63710657Y-98837731D01*
X63710657Y-98837731D02*
X63996371Y-98837731D01*
X63996371Y-98837731D02*
X64091609Y-98790112D01*
X64091609Y-98790112D02*
X64139228Y-98742493D01*
X64139228Y-98742493D02*
X64186847Y-98647255D01*
X64186847Y-98647255D02*
X64186847Y-98504398D01*
X64186847Y-98504398D02*
X64139228Y-98409160D01*
X64139228Y-98409160D02*
X64091609Y-98361541D01*
X64091609Y-98361541D02*
X63996371Y-98313922D01*
X63996371Y-98313922D02*
X63710657Y-98313922D01*
X63710657Y-98313922D02*
X63615419Y-98361541D01*
X63615419Y-98361541D02*
X63567800Y-98409160D01*
X63567800Y-98409160D02*
X63520180Y-98504398D01*
X63520180Y-98504398D02*
X63520180Y-98647255D01*
X64186847Y-97456779D02*
X63377323Y-97456779D01*
X63377323Y-97456779D02*
X63282085Y-97504398D01*
X63282085Y-97504398D02*
X63234466Y-97552017D01*
X63234466Y-97552017D02*
X63186847Y-97647255D01*
X63186847Y-97647255D02*
X63186847Y-97790112D01*
X63186847Y-97790112D02*
X63234466Y-97885350D01*
X63567800Y-97456779D02*
X63520180Y-97552017D01*
X63520180Y-97552017D02*
X63520180Y-97742493D01*
X63520180Y-97742493D02*
X63567800Y-97837731D01*
X63567800Y-97837731D02*
X63615419Y-97885350D01*
X63615419Y-97885350D02*
X63710657Y-97932969D01*
X63710657Y-97932969D02*
X63996371Y-97932969D01*
X63996371Y-97932969D02*
X64091609Y-97885350D01*
X64091609Y-97885350D02*
X64139228Y-97837731D01*
X64139228Y-97837731D02*
X64186847Y-97742493D01*
X64186847Y-97742493D02*
X64186847Y-97552017D01*
X64186847Y-97552017D02*
X64139228Y-97456779D01*
D10*
X53112175Y-119578350D02*
X51969318Y-119578350D01*
X48969318Y-119578350D02*
X47826461Y-119578350D01*
X48397889Y-120149778D02*
X48397889Y-119006921D01*
D12*
X56965000Y-114890000D02*
X56965000Y-115440000D01*
X56965000Y-118760000D02*
X56965000Y-120560000D01*
X56965000Y-120560000D02*
X58815000Y-120560000D01*
X61185000Y-120560000D02*
X61185000Y-121300000D01*
X63035000Y-114890000D02*
X56965000Y-114890000D01*
X63035000Y-115440000D02*
X63035000Y-114890000D01*
X63035000Y-118760000D02*
X63035000Y-120560000D01*
X63035000Y-120560000D02*
X61185000Y-120560000D01*
D13*
X66075060Y-91374400D02*
X66075060Y-93127000D01*
X67926720Y-89525280D02*
X67073280Y-89525280D01*
X67926720Y-96474720D02*
X67073280Y-96474720D01*
X68924940Y-90302520D02*
X68924940Y-95697480D01*
D12*
X47465000Y-114890000D02*
X47465000Y-115440000D01*
X47465000Y-118760000D02*
X47465000Y-120560000D01*
X47465000Y-120560000D02*
X49315000Y-120560000D01*
X51685000Y-120560000D02*
X51685000Y-121300000D01*
X53535000Y-114890000D02*
X47465000Y-114890000D01*
X53535000Y-115440000D02*
X53535000Y-114890000D01*
X53535000Y-118760000D02*
X53535000Y-120560000D01*
X53535000Y-120560000D02*
X51685000Y-120560000D01*
D14*
G36*
X68221989Y-111279246D02*
G01*
X68215957Y-111350956D01*
X68166402Y-111386435D01*
X68063170Y-111390687D01*
X67896107Y-111368713D01*
X67877826Y-111365742D01*
X67743247Y-111346979D01*
X67643500Y-111338374D01*
X67599025Y-111341778D01*
X67591281Y-111356936D01*
X67596341Y-111429085D01*
X67634968Y-111554538D01*
X67708260Y-111735898D01*
X67709347Y-111738290D01*
X67817315Y-111975769D01*
X67963232Y-112276757D01*
X68147107Y-112641463D01*
X68157431Y-112661659D01*
X68282754Y-112907767D01*
X68395392Y-113130655D01*
X68490841Y-113321279D01*
X68564596Y-113470593D01*
X68612152Y-113569551D01*
X68629005Y-113609109D01*
X68604703Y-113634185D01*
X68538230Y-113615855D01*
X68446397Y-113556814D01*
X68439165Y-113551189D01*
X68370146Y-113504533D01*
X68334328Y-113492837D01*
X68335766Y-113501311D01*
X68361303Y-113565746D01*
X68413976Y-113684761D01*
X68489170Y-113848260D01*
X68582272Y-114046147D01*
X68688669Y-114268326D01*
X68734742Y-114364534D01*
X68835934Y-114581854D01*
X68854549Y-114623673D01*
X68921179Y-114773359D01*
X68985901Y-114928270D01*
X69025523Y-115035808D01*
X69035470Y-115085196D01*
X69020600Y-115108871D01*
X68977173Y-115117104D01*
X68952091Y-115091591D01*
X68883220Y-115012982D01*
X68778577Y-114889794D01*
X68645111Y-114730286D01*
X68489769Y-114542717D01*
X68319500Y-114335347D01*
X68175618Y-114160262D01*
X68017521Y-113970031D01*
X67880134Y-113807055D01*
X67770390Y-113679473D01*
X67695223Y-113595424D01*
X67661568Y-113563048D01*
X67654011Y-113564328D01*
X67655138Y-113607644D01*
X67683970Y-113692823D01*
X67703271Y-113742395D01*
X67736945Y-113863926D01*
X67740047Y-113948783D01*
X67711046Y-113980686D01*
X67706852Y-113979524D01*
X67661587Y-113940997D01*
X67586547Y-113858907D01*
X67495593Y-113748207D01*
X67409611Y-113642496D01*
X67340963Y-113572008D01*
X67294084Y-113548150D01*
X67257375Y-113561849D01*
X67240710Y-113576061D01*
X67220019Y-113588605D01*
X67196935Y-113584847D01*
X67164557Y-113556956D01*
X67115983Y-113497101D01*
X67044312Y-113397449D01*
X66942643Y-113250169D01*
X66804074Y-113047428D01*
X66738282Y-112952176D01*
X66626815Y-112795596D01*
X66533220Y-112670200D01*
X66465781Y-112586934D01*
X66459145Y-112580864D01*
X66627793Y-112580864D01*
X66645568Y-112615227D01*
X66695575Y-112696300D01*
X66766511Y-112805340D01*
X66828804Y-112891217D01*
X66917360Y-112985950D01*
X66986623Y-113026036D01*
X66991734Y-113027105D01*
X67059730Y-113070260D01*
X67154127Y-113164063D01*
X67261617Y-113295478D01*
X67293920Y-113337985D01*
X67381603Y-113448243D01*
X67448969Y-113525542D01*
X67483519Y-113555251D01*
X67488366Y-113538975D01*
X67472647Y-113469458D01*
X67435413Y-113363504D01*
X67412674Y-113305701D01*
X67375466Y-113206079D01*
X67364044Y-113155152D01*
X67376728Y-113136579D01*
X67411842Y-113134019D01*
X67438630Y-113152538D01*
X67509847Y-113223480D01*
X67616310Y-113340006D01*
X67750872Y-113494057D01*
X67906387Y-113677575D01*
X68075706Y-113882503D01*
X68212637Y-114049381D01*
X68368910Y-114237575D01*
X68504257Y-114398072D01*
X68611815Y-114522829D01*
X68684721Y-114603805D01*
X68716113Y-114632958D01*
X68717801Y-114632985D01*
X68726316Y-114623673D01*
X68720726Y-114591741D01*
X68697673Y-114529471D01*
X68653803Y-114429144D01*
X68585756Y-114283041D01*
X68490178Y-114083444D01*
X68363710Y-113822634D01*
X68302505Y-113695713D01*
X68218198Y-113516756D01*
X68150906Y-113368794D01*
X68106342Y-113264487D01*
X68090217Y-113216498D01*
X68091307Y-113204537D01*
X68124883Y-113174098D01*
X68189511Y-113190534D01*
X68263613Y-113249710D01*
X68315371Y-113298189D01*
X68348822Y-113311576D01*
X68339808Y-113275074D01*
X68300604Y-113182653D01*
X68237290Y-113047010D01*
X68156244Y-112880619D01*
X68063845Y-112695949D01*
X67966469Y-112505473D01*
X67870497Y-112321662D01*
X67782305Y-112156988D01*
X67708272Y-112023922D01*
X67654776Y-111934937D01*
X67628196Y-111902504D01*
X67613833Y-111903725D01*
X67595009Y-111920758D01*
X67599421Y-111968394D01*
X67629679Y-112059906D01*
X67688395Y-112208566D01*
X67734247Y-112336208D01*
X67744014Y-112374302D01*
X67762258Y-112445459D01*
X67764772Y-112508530D01*
X67763978Y-112510483D01*
X67711596Y-112546353D01*
X67616778Y-112540857D01*
X67498408Y-112498170D01*
X67375372Y-112422465D01*
X67250614Y-112327308D01*
X67083522Y-112419881D01*
X67037089Y-112443896D01*
X66896702Y-112502827D01*
X66772111Y-112538883D01*
X66745002Y-112544125D01*
X66661447Y-112564747D01*
X66627793Y-112580864D01*
X66459145Y-112580864D01*
X66432780Y-112556747D01*
X66431785Y-112556746D01*
X66368020Y-112556267D01*
X66364415Y-112558367D01*
X66348208Y-112609167D01*
X66332405Y-112713893D01*
X66332384Y-112714029D01*
X66319914Y-112854524D01*
X66315339Y-112922161D01*
X66303261Y-113047560D01*
X66286099Y-113118956D01*
X66258260Y-113152801D01*
X66214147Y-113165551D01*
X66155398Y-113163048D01*
X66038250Y-113110828D01*
X65925691Y-113010023D01*
X65837700Y-112876001D01*
X65809951Y-112804375D01*
X65780274Y-112648052D01*
X65773155Y-112437334D01*
X65773194Y-112434259D01*
X65772219Y-112315077D01*
X65896936Y-112315077D01*
X65897732Y-112382956D01*
X65910154Y-112514798D01*
X65927731Y-112633274D01*
X65962511Y-112776126D01*
X66002821Y-112877314D01*
X66061228Y-112966842D01*
X66110843Y-113009282D01*
X66143155Y-112982956D01*
X66160691Y-112885336D01*
X66165975Y-112713893D01*
X66165944Y-112688887D01*
X66163089Y-112541691D01*
X66153448Y-112454739D01*
X66137028Y-112419818D01*
X66633139Y-112419818D01*
X66638363Y-112435940D01*
X66687585Y-112440279D01*
X66731375Y-112436548D01*
X66844292Y-112407024D01*
X66969724Y-112356832D01*
X67086067Y-112296517D01*
X67171715Y-112236624D01*
X67205066Y-112187698D01*
X67205035Y-112183414D01*
X67198603Y-112149774D01*
X67172658Y-112139847D01*
X67115250Y-112157033D01*
X67014425Y-112204731D01*
X66858230Y-112286340D01*
X66783228Y-112326477D01*
X66679049Y-112385475D01*
X66633139Y-112419818D01*
X66137028Y-112419818D01*
X66133983Y-112413342D01*
X66101657Y-112402807D01*
X66042759Y-112387109D01*
X65961237Y-112335459D01*
X65944560Y-112320866D01*
X65911350Y-112298576D01*
X65896936Y-112315077D01*
X65772219Y-112315077D01*
X65771903Y-112276474D01*
X65759549Y-112170228D01*
X65730670Y-112090684D01*
X65679801Y-112013004D01*
X65676826Y-112009023D01*
X65520303Y-111764471D01*
X65466156Y-111643795D01*
X65627187Y-111643795D01*
X65640740Y-111688041D01*
X65694535Y-111755993D01*
X65766487Y-111807954D01*
X65849719Y-111841852D01*
X65903442Y-111836027D01*
X65913943Y-111793535D01*
X65867511Y-111717433D01*
X65799206Y-111656869D01*
X65718336Y-111615897D01*
X65653648Y-111609287D01*
X65627187Y-111643795D01*
X65466156Y-111643795D01*
X65398119Y-111492164D01*
X65397684Y-111490678D01*
X65806469Y-111490678D01*
X65833070Y-111543069D01*
X65898546Y-111623489D01*
X65945210Y-111674606D01*
X66018559Y-111756295D01*
X66050689Y-111793535D01*
X66060035Y-111804368D01*
X66076778Y-111812835D01*
X66089005Y-111772544D01*
X66083995Y-111747203D01*
X66038036Y-111666728D01*
X65962617Y-111578881D01*
X65880644Y-111508186D01*
X65815022Y-111479171D01*
X65806469Y-111490678D01*
X65397684Y-111490678D01*
X65306864Y-111180507D01*
X65306446Y-111178130D01*
X65397577Y-111178130D01*
X65436502Y-111313678D01*
X65445031Y-111337645D01*
X65476360Y-111397749D01*
X65525066Y-111411680D01*
X65619305Y-111391411D01*
X65672332Y-111381032D01*
X65846622Y-111393453D01*
X66005228Y-111470081D01*
X66126503Y-111601931D01*
X66155207Y-111653545D01*
X66191580Y-111772544D01*
X66197109Y-111790633D01*
X66171102Y-111893097D01*
X66079161Y-111957268D01*
X65923262Y-111979474D01*
X65763016Y-111979474D01*
X65923973Y-112140431D01*
X65996490Y-112210004D01*
X66081767Y-112271661D01*
X66174341Y-112300886D01*
X66308256Y-112312965D01*
X66483057Y-112308778D01*
X66732211Y-112245693D01*
X66963880Y-112109941D01*
X67095284Y-112009715D01*
X67018331Y-111927246D01*
X66990238Y-111894404D01*
X66925572Y-111773102D01*
X66919096Y-111693635D01*
X67016763Y-111693635D01*
X67061667Y-111752884D01*
X67153141Y-111811625D01*
X67213301Y-111845340D01*
X67282510Y-111908382D01*
X67347823Y-112006998D01*
X67423700Y-112159794D01*
X67425014Y-112162633D01*
X67437868Y-112187698D01*
X67500710Y-112310236D01*
X67565767Y-112406726D01*
X67612915Y-112441292D01*
X67645926Y-112427688D01*
X67649674Y-112374302D01*
X67615786Y-112272572D01*
X67542467Y-112114171D01*
X67533788Y-112097253D01*
X67455578Y-111974401D01*
X67355361Y-111849971D01*
X67275515Y-111767807D01*
X67474460Y-111767807D01*
X67476131Y-111794108D01*
X67489585Y-111825534D01*
X67499546Y-111818444D01*
X67526862Y-111767807D01*
X67532912Y-111738290D01*
X67511737Y-111710080D01*
X67494600Y-111716583D01*
X67474460Y-111767807D01*
X67275515Y-111767807D01*
X67249030Y-111740553D01*
X67152478Y-111662736D01*
X67081598Y-111633110D01*
X67024411Y-111648801D01*
X67016763Y-111693635D01*
X66919096Y-111693635D01*
X66916591Y-111662894D01*
X66954086Y-111576833D01*
X67028850Y-111527973D01*
X67131674Y-111529368D01*
X67253349Y-111594073D01*
X67309323Y-111634525D01*
X67357681Y-111646699D01*
X67399008Y-111612038D01*
X67415623Y-111582883D01*
X67445895Y-111484997D01*
X67466069Y-111360527D01*
X67472031Y-111265979D01*
X67461440Y-111174367D01*
X67421981Y-111083819D01*
X67344219Y-110963613D01*
X67328975Y-110943037D01*
X67481926Y-110943037D01*
X67506344Y-111015314D01*
X67552093Y-111104264D01*
X67604737Y-111182977D01*
X67649844Y-111224539D01*
X67686267Y-111233650D01*
X67783953Y-111250672D01*
X67893559Y-111265979D01*
X67911002Y-111268415D01*
X68009766Y-111278226D01*
X68100199Y-111275628D01*
X68128702Y-111251848D01*
X68128640Y-111250164D01*
X68094002Y-111198709D01*
X68008632Y-111132099D01*
X67891506Y-111060200D01*
X67761599Y-110992881D01*
X67637886Y-110940009D01*
X67539341Y-110911451D01*
X67484939Y-110917075D01*
X67481926Y-110943037D01*
X67328975Y-110943037D01*
X67298586Y-110902019D01*
X67188657Y-110770798D01*
X67054052Y-110623866D01*
X66909588Y-110476169D01*
X66770084Y-110342652D01*
X66650357Y-110238258D01*
X66565225Y-110177935D01*
X66529566Y-110161146D01*
X66496402Y-110163995D01*
X66478313Y-110213663D01*
X66476652Y-110227688D01*
X66465108Y-110325134D01*
X66461760Y-110353194D01*
X66398981Y-110557048D01*
X66279762Y-110742901D01*
X66118460Y-110899270D01*
X65929434Y-111014668D01*
X65727042Y-111077613D01*
X65525640Y-111076618D01*
X65447142Y-111070695D01*
X65399947Y-111100264D01*
X65397577Y-111178130D01*
X65306446Y-111178130D01*
X65243132Y-110817907D01*
X65203512Y-110392769D01*
X65189575Y-110197141D01*
X65185684Y-110159140D01*
X65282589Y-110159140D01*
X65284459Y-110322759D01*
X65291061Y-110483933D01*
X65302308Y-110624847D01*
X65318111Y-110727686D01*
X65325352Y-110755203D01*
X65369014Y-110861765D01*
X65420761Y-110929731D01*
X65469552Y-110955561D01*
X65606864Y-110976840D01*
X65771014Y-110954160D01*
X65938634Y-110889345D01*
X65950337Y-110883036D01*
X66101483Y-110776331D01*
X66227771Y-110643105D01*
X66321708Y-110497697D01*
X66375802Y-110354445D01*
X66382562Y-110227688D01*
X66334493Y-110131764D01*
X66286915Y-110105704D01*
X66178977Y-110063655D01*
X66030602Y-110013166D01*
X65859832Y-109959673D01*
X65684710Y-109908608D01*
X65523278Y-109865405D01*
X65393578Y-109835499D01*
X65313655Y-109824322D01*
X65306251Y-109831765D01*
X65293397Y-109895827D01*
X65285539Y-110010891D01*
X65282589Y-110159140D01*
X65185684Y-110159140D01*
X65165887Y-109965792D01*
X65138176Y-109803413D01*
X65105766Y-109705241D01*
X65095010Y-109683715D01*
X65066392Y-109595584D01*
X65086318Y-109541615D01*
X65104894Y-109529402D01*
X65157843Y-109542185D01*
X65237726Y-109614706D01*
X65262170Y-109639340D01*
X65319417Y-109683842D01*
X65395878Y-109722464D01*
X65505614Y-109760472D01*
X65662685Y-109803133D01*
X65881153Y-109855714D01*
X65917339Y-109864298D01*
X66227434Y-109949180D01*
X66507213Y-110045655D01*
X66747488Y-110149314D01*
X66939070Y-110255750D01*
X67072771Y-110360556D01*
X67139403Y-110459322D01*
X67224256Y-110623195D01*
X67370768Y-110750594D01*
X67571259Y-110825050D01*
X67722230Y-110868685D01*
X67891489Y-110943029D01*
X68041228Y-111033020D01*
X68153022Y-111127386D01*
X68208446Y-111214856D01*
X68216226Y-111251848D01*
X68221989Y-111279246D01*
G37*
M02*
