G04 #@! TF.GenerationSoftware,KiCad,Pcbnew,8.0.0-rc1-52-g27482ef8a0*
G04 #@! TF.CreationDate,2024-01-20T20:33:33+01:00*
G04 #@! TF.ProjectId,test,74657374-2e6b-4696-9361-645f70636258,rev?*
G04 #@! TF.SameCoordinates,Original*
G04 #@! TF.FileFunction,Legend,Top*
G04 #@! TF.FilePolarity,Positive*
%FSLAX46Y46*%
G04 Gerber Fmt 4.6, Leading zero omitted, Abs format (unit mm)*
G04 Created by KiCad (PCBNEW 8.0.0-rc1-52-g27482ef8a0) date 2024-01-20 20:33:33*
%MOMM*%
%LPD*%
G01*
G04 APERTURE LIST*
%ADD10C,0.150000*%
%ADD11C,0.300000*%
%ADD12C,0.120000*%
%ADD13C,0.000000*%
%ADD14C,0.203200*%
G04 APERTURE END LIST*
D10*
X64369819Y-109093220D02*
X63369819Y-109093220D01*
X63369819Y-109093220D02*
X63369819Y-108855125D01*
X63369819Y-108855125D02*
X63417438Y-108712268D01*
X63417438Y-108712268D02*
X63512676Y-108617030D01*
X63512676Y-108617030D02*
X63607914Y-108569411D01*
X63607914Y-108569411D02*
X63798390Y-108521792D01*
X63798390Y-108521792D02*
X63941247Y-108521792D01*
X63941247Y-108521792D02*
X64131723Y-108569411D01*
X64131723Y-108569411D02*
X64226961Y-108617030D01*
X64226961Y-108617030D02*
X64322200Y-108712268D01*
X64322200Y-108712268D02*
X64369819Y-108855125D01*
X64369819Y-108855125D02*
X64369819Y-109093220D01*
X64322200Y-107712268D02*
X64369819Y-107807506D01*
X64369819Y-107807506D02*
X64369819Y-107997982D01*
X64369819Y-107997982D02*
X64322200Y-108093220D01*
X64322200Y-108093220D02*
X64226961Y-108140839D01*
X64226961Y-108140839D02*
X63846009Y-108140839D01*
X63846009Y-108140839D02*
X63750771Y-108093220D01*
X63750771Y-108093220D02*
X63703152Y-107997982D01*
X63703152Y-107997982D02*
X63703152Y-107807506D01*
X63703152Y-107807506D02*
X63750771Y-107712268D01*
X63750771Y-107712268D02*
X63846009Y-107664649D01*
X63846009Y-107664649D02*
X63941247Y-107664649D01*
X63941247Y-107664649D02*
X64036485Y-108140839D01*
X64322200Y-107283696D02*
X64369819Y-107188458D01*
X64369819Y-107188458D02*
X64369819Y-106997982D01*
X64369819Y-106997982D02*
X64322200Y-106902744D01*
X64322200Y-106902744D02*
X64226961Y-106855125D01*
X64226961Y-106855125D02*
X64179342Y-106855125D01*
X64179342Y-106855125D02*
X64084104Y-106902744D01*
X64084104Y-106902744D02*
X64036485Y-106997982D01*
X64036485Y-106997982D02*
X64036485Y-107140839D01*
X64036485Y-107140839D02*
X63988866Y-107236077D01*
X63988866Y-107236077D02*
X63893628Y-107283696D01*
X63893628Y-107283696D02*
X63846009Y-107283696D01*
X63846009Y-107283696D02*
X63750771Y-107236077D01*
X63750771Y-107236077D02*
X63703152Y-107140839D01*
X63703152Y-107140839D02*
X63703152Y-106997982D01*
X63703152Y-106997982D02*
X63750771Y-106902744D01*
X64369819Y-106426553D02*
X63703152Y-106426553D01*
X63369819Y-106426553D02*
X63417438Y-106474172D01*
X63417438Y-106474172D02*
X63465057Y-106426553D01*
X63465057Y-106426553D02*
X63417438Y-106378934D01*
X63417438Y-106378934D02*
X63369819Y-106426553D01*
X63369819Y-106426553D02*
X63465057Y-106426553D01*
X63703152Y-105521792D02*
X64512676Y-105521792D01*
X64512676Y-105521792D02*
X64607914Y-105569411D01*
X64607914Y-105569411D02*
X64655533Y-105617030D01*
X64655533Y-105617030D02*
X64703152Y-105712268D01*
X64703152Y-105712268D02*
X64703152Y-105855125D01*
X64703152Y-105855125D02*
X64655533Y-105950363D01*
X64322200Y-105521792D02*
X64369819Y-105617030D01*
X64369819Y-105617030D02*
X64369819Y-105807506D01*
X64369819Y-105807506D02*
X64322200Y-105902744D01*
X64322200Y-105902744D02*
X64274580Y-105950363D01*
X64274580Y-105950363D02*
X64179342Y-105997982D01*
X64179342Y-105997982D02*
X63893628Y-105997982D01*
X63893628Y-105997982D02*
X63798390Y-105950363D01*
X63798390Y-105950363D02*
X63750771Y-105902744D01*
X63750771Y-105902744D02*
X63703152Y-105807506D01*
X63703152Y-105807506D02*
X63703152Y-105617030D01*
X63703152Y-105617030D02*
X63750771Y-105521792D01*
X63703152Y-105045601D02*
X64369819Y-105045601D01*
X63798390Y-105045601D02*
X63750771Y-104997982D01*
X63750771Y-104997982D02*
X63703152Y-104902744D01*
X63703152Y-104902744D02*
X63703152Y-104759887D01*
X63703152Y-104759887D02*
X63750771Y-104664649D01*
X63750771Y-104664649D02*
X63846009Y-104617030D01*
X63846009Y-104617030D02*
X64369819Y-104617030D01*
X64322200Y-103759887D02*
X64369819Y-103855125D01*
X64369819Y-103855125D02*
X64369819Y-104045601D01*
X64369819Y-104045601D02*
X64322200Y-104140839D01*
X64322200Y-104140839D02*
X64226961Y-104188458D01*
X64226961Y-104188458D02*
X63846009Y-104188458D01*
X63846009Y-104188458D02*
X63750771Y-104140839D01*
X63750771Y-104140839D02*
X63703152Y-104045601D01*
X63703152Y-104045601D02*
X63703152Y-103855125D01*
X63703152Y-103855125D02*
X63750771Y-103759887D01*
X63750771Y-103759887D02*
X63846009Y-103712268D01*
X63846009Y-103712268D02*
X63941247Y-103712268D01*
X63941247Y-103712268D02*
X64036485Y-104188458D01*
X64369819Y-102855125D02*
X63369819Y-102855125D01*
X64322200Y-102855125D02*
X64369819Y-102950363D01*
X64369819Y-102950363D02*
X64369819Y-103140839D01*
X64369819Y-103140839D02*
X64322200Y-103236077D01*
X64322200Y-103236077D02*
X64274580Y-103283696D01*
X64274580Y-103283696D02*
X64179342Y-103331315D01*
X64179342Y-103331315D02*
X63893628Y-103331315D01*
X63893628Y-103331315D02*
X63798390Y-103283696D01*
X63798390Y-103283696D02*
X63750771Y-103236077D01*
X63750771Y-103236077D02*
X63703152Y-103140839D01*
X63703152Y-103140839D02*
X63703152Y-102950363D01*
X63703152Y-102950363D02*
X63750771Y-102855125D01*
X64369819Y-101617029D02*
X63369819Y-101617029D01*
X63750771Y-101617029D02*
X63703152Y-101521791D01*
X63703152Y-101521791D02*
X63703152Y-101331315D01*
X63703152Y-101331315D02*
X63750771Y-101236077D01*
X63750771Y-101236077D02*
X63798390Y-101188458D01*
X63798390Y-101188458D02*
X63893628Y-101140839D01*
X63893628Y-101140839D02*
X64179342Y-101140839D01*
X64179342Y-101140839D02*
X64274580Y-101188458D01*
X64274580Y-101188458D02*
X64322200Y-101236077D01*
X64322200Y-101236077D02*
X64369819Y-101331315D01*
X64369819Y-101331315D02*
X64369819Y-101521791D01*
X64369819Y-101521791D02*
X64322200Y-101617029D01*
X63703152Y-100807505D02*
X64369819Y-100569410D01*
X63703152Y-100331315D02*
X64369819Y-100569410D01*
X64369819Y-100569410D02*
X64607914Y-100664648D01*
X64607914Y-100664648D02*
X64655533Y-100712267D01*
X64655533Y-100712267D02*
X64703152Y-100807505D01*
X64369819Y-99188457D02*
X63369819Y-99188457D01*
X63750771Y-99188457D02*
X63703152Y-99093219D01*
X63703152Y-99093219D02*
X63703152Y-98902743D01*
X63703152Y-98902743D02*
X63750771Y-98807505D01*
X63750771Y-98807505D02*
X63798390Y-98759886D01*
X63798390Y-98759886D02*
X63893628Y-98712267D01*
X63893628Y-98712267D02*
X64179342Y-98712267D01*
X64179342Y-98712267D02*
X64274580Y-98759886D01*
X64274580Y-98759886D02*
X64322200Y-98807505D01*
X64322200Y-98807505D02*
X64369819Y-98902743D01*
X64369819Y-98902743D02*
X64369819Y-99093219D01*
X64369819Y-99093219D02*
X64322200Y-99188457D01*
X64369819Y-98140838D02*
X64322200Y-98236076D01*
X64322200Y-98236076D02*
X64274580Y-98283695D01*
X64274580Y-98283695D02*
X64179342Y-98331314D01*
X64179342Y-98331314D02*
X63893628Y-98331314D01*
X63893628Y-98331314D02*
X63798390Y-98283695D01*
X63798390Y-98283695D02*
X63750771Y-98236076D01*
X63750771Y-98236076D02*
X63703152Y-98140838D01*
X63703152Y-98140838D02*
X63703152Y-97997981D01*
X63703152Y-97997981D02*
X63750771Y-97902743D01*
X63750771Y-97902743D02*
X63798390Y-97855124D01*
X63798390Y-97855124D02*
X63893628Y-97807505D01*
X63893628Y-97807505D02*
X64179342Y-97807505D01*
X64179342Y-97807505D02*
X64274580Y-97855124D01*
X64274580Y-97855124D02*
X64322200Y-97902743D01*
X64322200Y-97902743D02*
X64369819Y-97997981D01*
X64369819Y-97997981D02*
X64369819Y-98140838D01*
X63703152Y-96950362D02*
X64512676Y-96950362D01*
X64512676Y-96950362D02*
X64607914Y-96997981D01*
X64607914Y-96997981D02*
X64655533Y-97045600D01*
X64655533Y-97045600D02*
X64703152Y-97140838D01*
X64703152Y-97140838D02*
X64703152Y-97283695D01*
X64703152Y-97283695D02*
X64655533Y-97378933D01*
X64322200Y-96950362D02*
X64369819Y-97045600D01*
X64369819Y-97045600D02*
X64369819Y-97236076D01*
X64369819Y-97236076D02*
X64322200Y-97331314D01*
X64322200Y-97331314D02*
X64274580Y-97378933D01*
X64274580Y-97378933D02*
X64179342Y-97426552D01*
X64179342Y-97426552D02*
X63893628Y-97426552D01*
X63893628Y-97426552D02*
X63798390Y-97378933D01*
X63798390Y-97378933D02*
X63750771Y-97331314D01*
X63750771Y-97331314D02*
X63703152Y-97236076D01*
X63703152Y-97236076D02*
X63703152Y-97045600D01*
X63703152Y-97045600D02*
X63750771Y-96950362D01*
D11*
X57392685Y-119578350D02*
X58535543Y-119578350D01*
X61535542Y-119578350D02*
X62678400Y-119578350D01*
X62106971Y-120149778D02*
X62106971Y-119006921D01*
X47915974Y-119578350D02*
X49058832Y-119578350D01*
X52058831Y-119578350D02*
X53201689Y-119578350D01*
X52630260Y-120149778D02*
X52630260Y-119006921D01*
D12*
X47465000Y-114890000D02*
X53535000Y-114890000D01*
X47465000Y-115440000D02*
X47465000Y-114890000D01*
X47465000Y-118760000D02*
X47465000Y-120560000D01*
X47465000Y-120560000D02*
X49315000Y-120560000D01*
X49315000Y-120560000D02*
X49315000Y-121300000D01*
X53535000Y-114890000D02*
X53535000Y-115440000D01*
X53535000Y-118760000D02*
X53535000Y-120560000D01*
X53535000Y-120560000D02*
X51685000Y-120560000D01*
D13*
G36*
X68676131Y-109541615D02*
G01*
X68696057Y-109595584D01*
X68667439Y-109683715D01*
X68656683Y-109705241D01*
X68624273Y-109803413D01*
X68596562Y-109965792D01*
X68572874Y-110197141D01*
X68558937Y-110392769D01*
X68519317Y-110817907D01*
X68455585Y-111180507D01*
X68364330Y-111492164D01*
X68242146Y-111764471D01*
X68085623Y-112009023D01*
X68082648Y-112013004D01*
X68031779Y-112090684D01*
X68002900Y-112170228D01*
X67990546Y-112276474D01*
X67989255Y-112434259D01*
X67989294Y-112437334D01*
X67982175Y-112648052D01*
X67952498Y-112804375D01*
X67924749Y-112876001D01*
X67836758Y-113010023D01*
X67724199Y-113110828D01*
X67607051Y-113163048D01*
X67548302Y-113165551D01*
X67504189Y-113152801D01*
X67476350Y-113118956D01*
X67459188Y-113047560D01*
X67447110Y-112922161D01*
X67442535Y-112854524D01*
X67430065Y-112714029D01*
X67430044Y-112713893D01*
X67596474Y-112713893D01*
X67601758Y-112885336D01*
X67619294Y-112982956D01*
X67651606Y-113009282D01*
X67701221Y-112966842D01*
X67759628Y-112877314D01*
X67799938Y-112776126D01*
X67834718Y-112633274D01*
X67852295Y-112514798D01*
X67864717Y-112382956D01*
X67865513Y-112315077D01*
X67851099Y-112298576D01*
X67817889Y-112320866D01*
X67801212Y-112335459D01*
X67719690Y-112387109D01*
X67660792Y-112402807D01*
X67628466Y-112413342D01*
X67609001Y-112454739D01*
X67599360Y-112541691D01*
X67596505Y-112688887D01*
X67596474Y-112713893D01*
X67430044Y-112713893D01*
X67414241Y-112609167D01*
X67398034Y-112558367D01*
X67394429Y-112556267D01*
X67330664Y-112556746D01*
X67329669Y-112556747D01*
X67296668Y-112586934D01*
X67229229Y-112670200D01*
X67135634Y-112795596D01*
X67024167Y-112952176D01*
X66958375Y-113047428D01*
X66819806Y-113250169D01*
X66718137Y-113397449D01*
X66646466Y-113497101D01*
X66597892Y-113556956D01*
X66565514Y-113584847D01*
X66542430Y-113588605D01*
X66521739Y-113576061D01*
X66505074Y-113561849D01*
X66468365Y-113548150D01*
X66421486Y-113572008D01*
X66352838Y-113642496D01*
X66266856Y-113748207D01*
X66175902Y-113858907D01*
X66100862Y-113940997D01*
X66055597Y-113979524D01*
X66051403Y-113980686D01*
X66022402Y-113948783D01*
X66025504Y-113863926D01*
X66059178Y-113742395D01*
X66078479Y-113692823D01*
X66107311Y-113607644D01*
X66108438Y-113564328D01*
X66100881Y-113563048D01*
X66067226Y-113595424D01*
X65992059Y-113679473D01*
X65882315Y-113807055D01*
X65744928Y-113970031D01*
X65586831Y-114160262D01*
X65442949Y-114335347D01*
X65272680Y-114542717D01*
X65117338Y-114730286D01*
X64983872Y-114889794D01*
X64879229Y-115012982D01*
X64810358Y-115091591D01*
X64785276Y-115117104D01*
X64741849Y-115108871D01*
X64726979Y-115085196D01*
X64736926Y-115035808D01*
X64776548Y-114928270D01*
X64841270Y-114773359D01*
X64907900Y-114623673D01*
X65036133Y-114623673D01*
X65044648Y-114632985D01*
X65046336Y-114632958D01*
X65077728Y-114603805D01*
X65150634Y-114522829D01*
X65258192Y-114398072D01*
X65393539Y-114237575D01*
X65549812Y-114049381D01*
X65686743Y-113882503D01*
X65856062Y-113677575D01*
X66011577Y-113494057D01*
X66146139Y-113340006D01*
X66252602Y-113223480D01*
X66323819Y-113152538D01*
X66350607Y-113134019D01*
X66385721Y-113136579D01*
X66398405Y-113155152D01*
X66386983Y-113206079D01*
X66349775Y-113305701D01*
X66327036Y-113363504D01*
X66289802Y-113469458D01*
X66274083Y-113538975D01*
X66278930Y-113555251D01*
X66313480Y-113525542D01*
X66380846Y-113448243D01*
X66468529Y-113337985D01*
X66500832Y-113295478D01*
X66608322Y-113164063D01*
X66702719Y-113070260D01*
X66770715Y-113027105D01*
X66775826Y-113026036D01*
X66845089Y-112985950D01*
X66933645Y-112891217D01*
X66995938Y-112805340D01*
X67066874Y-112696300D01*
X67116881Y-112615227D01*
X67134656Y-112580864D01*
X67101002Y-112564747D01*
X67017447Y-112544125D01*
X66990338Y-112538883D01*
X66865747Y-112502827D01*
X66725360Y-112443896D01*
X66678927Y-112419881D01*
X66511835Y-112327308D01*
X66387077Y-112422465D01*
X66264041Y-112498170D01*
X66145671Y-112540857D01*
X66050853Y-112546353D01*
X65998471Y-112510483D01*
X65997677Y-112508530D01*
X66000191Y-112445459D01*
X66018435Y-112374302D01*
X66112775Y-112374302D01*
X66116523Y-112427688D01*
X66149534Y-112441292D01*
X66196682Y-112406726D01*
X66261739Y-112310236D01*
X66324581Y-112187698D01*
X66557383Y-112187698D01*
X66590734Y-112236624D01*
X66676382Y-112296517D01*
X66792725Y-112356832D01*
X66918157Y-112407024D01*
X67031074Y-112436548D01*
X67074864Y-112440279D01*
X67124086Y-112435940D01*
X67129310Y-112419818D01*
X67083400Y-112385475D01*
X66979221Y-112326477D01*
X66904219Y-112286340D01*
X66748024Y-112204731D01*
X66647199Y-112157033D01*
X66589791Y-112139847D01*
X66563846Y-112149774D01*
X66557414Y-112183414D01*
X66557383Y-112187698D01*
X66324581Y-112187698D01*
X66337435Y-112162633D01*
X66338749Y-112159794D01*
X66414626Y-112006998D01*
X66479939Y-111908382D01*
X66549148Y-111845340D01*
X66609308Y-111811625D01*
X66700782Y-111752884D01*
X66745686Y-111693635D01*
X66738038Y-111648801D01*
X66680851Y-111633110D01*
X66609971Y-111662736D01*
X66513419Y-111740553D01*
X66407088Y-111849971D01*
X66306871Y-111974401D01*
X66228661Y-112097253D01*
X66219982Y-112114171D01*
X66146663Y-112272572D01*
X66112775Y-112374302D01*
X66018435Y-112374302D01*
X66028202Y-112336208D01*
X66074054Y-112208566D01*
X66132770Y-112059906D01*
X66163028Y-111968394D01*
X66167440Y-111920758D01*
X66148616Y-111903725D01*
X66134253Y-111902504D01*
X66107673Y-111934937D01*
X66054177Y-112023922D01*
X65980144Y-112156988D01*
X65891952Y-112321662D01*
X65795980Y-112505473D01*
X65698604Y-112695949D01*
X65606205Y-112880619D01*
X65525159Y-113047010D01*
X65461845Y-113182653D01*
X65422641Y-113275074D01*
X65413627Y-113311576D01*
X65447078Y-113298189D01*
X65498836Y-113249710D01*
X65572938Y-113190534D01*
X65637566Y-113174098D01*
X65671142Y-113204537D01*
X65672232Y-113216498D01*
X65656107Y-113264487D01*
X65611543Y-113368794D01*
X65544251Y-113516756D01*
X65459944Y-113695713D01*
X65398739Y-113822634D01*
X65272271Y-114083444D01*
X65176693Y-114283041D01*
X65108646Y-114429144D01*
X65064776Y-114529471D01*
X65041723Y-114591741D01*
X65036133Y-114623673D01*
X64907900Y-114623673D01*
X64926515Y-114581854D01*
X65027707Y-114364534D01*
X65073780Y-114268326D01*
X65180177Y-114046147D01*
X65273279Y-113848260D01*
X65348473Y-113684761D01*
X65401146Y-113565746D01*
X65426683Y-113501311D01*
X65428121Y-113492837D01*
X65392303Y-113504533D01*
X65323284Y-113551189D01*
X65316052Y-113556814D01*
X65224219Y-113615855D01*
X65157746Y-113634185D01*
X65133444Y-113609109D01*
X65150297Y-113569551D01*
X65197853Y-113470593D01*
X65271608Y-113321279D01*
X65367057Y-113130655D01*
X65479695Y-112907767D01*
X65605018Y-112661659D01*
X65615342Y-112641463D01*
X65799217Y-112276757D01*
X65945134Y-111975769D01*
X66053102Y-111738290D01*
X66229537Y-111738290D01*
X66235587Y-111767807D01*
X66262903Y-111818444D01*
X66272864Y-111825534D01*
X66286318Y-111794108D01*
X66287989Y-111767807D01*
X66267849Y-111716583D01*
X66250712Y-111710080D01*
X66229537Y-111738290D01*
X66053102Y-111738290D01*
X66054189Y-111735898D01*
X66127481Y-111554538D01*
X66166108Y-111429085D01*
X66171168Y-111356936D01*
X66163424Y-111341778D01*
X66118949Y-111338374D01*
X66019202Y-111346979D01*
X65884623Y-111365742D01*
X65866342Y-111368713D01*
X65699279Y-111390687D01*
X65596047Y-111386435D01*
X65546492Y-111350956D01*
X65540460Y-111279246D01*
X65546223Y-111251848D01*
X65633747Y-111251848D01*
X65662250Y-111275628D01*
X65752683Y-111278226D01*
X65851447Y-111268415D01*
X65868890Y-111265979D01*
X66290418Y-111265979D01*
X66296380Y-111360527D01*
X66316554Y-111484997D01*
X66346826Y-111582883D01*
X66363441Y-111612038D01*
X66404768Y-111646699D01*
X66453126Y-111634525D01*
X66509100Y-111594073D01*
X66630775Y-111529368D01*
X66733599Y-111527973D01*
X66808363Y-111576833D01*
X66845858Y-111662894D01*
X66836877Y-111773102D01*
X66772211Y-111894404D01*
X66744118Y-111927246D01*
X66667165Y-112009715D01*
X66798569Y-112109941D01*
X67030238Y-112245693D01*
X67279392Y-112308778D01*
X67454193Y-112312965D01*
X67588108Y-112300886D01*
X67680682Y-112271661D01*
X67765959Y-112210004D01*
X67838476Y-112140431D01*
X67999433Y-111979474D01*
X67839187Y-111979474D01*
X67683288Y-111957268D01*
X67591347Y-111893097D01*
X67565340Y-111790633D01*
X67570869Y-111772544D01*
X67673444Y-111772544D01*
X67685671Y-111812835D01*
X67702414Y-111804368D01*
X67711760Y-111793535D01*
X67848506Y-111793535D01*
X67859007Y-111836027D01*
X67912730Y-111841852D01*
X67995962Y-111807954D01*
X68067914Y-111755993D01*
X68121709Y-111688041D01*
X68135262Y-111643795D01*
X68108801Y-111609287D01*
X68044113Y-111615897D01*
X67963243Y-111656869D01*
X67894938Y-111717433D01*
X67848506Y-111793535D01*
X67711760Y-111793535D01*
X67743890Y-111756295D01*
X67817239Y-111674606D01*
X67863903Y-111623489D01*
X67929379Y-111543069D01*
X67955980Y-111490678D01*
X67947427Y-111479171D01*
X67881805Y-111508186D01*
X67799832Y-111578881D01*
X67724413Y-111666728D01*
X67678454Y-111747203D01*
X67673444Y-111772544D01*
X67570869Y-111772544D01*
X67607242Y-111653545D01*
X67635946Y-111601931D01*
X67757221Y-111470081D01*
X67915827Y-111393453D01*
X68090117Y-111381032D01*
X68143144Y-111391411D01*
X68237383Y-111411680D01*
X68286089Y-111397749D01*
X68317418Y-111337645D01*
X68325947Y-111313678D01*
X68364872Y-111178130D01*
X68362502Y-111100264D01*
X68315307Y-111070695D01*
X68236809Y-111076618D01*
X68035407Y-111077613D01*
X67833015Y-111014668D01*
X67643989Y-110899270D01*
X67482687Y-110742901D01*
X67363468Y-110557048D01*
X67300689Y-110353194D01*
X67297341Y-110325134D01*
X67285797Y-110227688D01*
X67379887Y-110227688D01*
X67386647Y-110354445D01*
X67440741Y-110497697D01*
X67534678Y-110643105D01*
X67660966Y-110776331D01*
X67812112Y-110883036D01*
X67823815Y-110889345D01*
X67991435Y-110954160D01*
X68155585Y-110976840D01*
X68292897Y-110955561D01*
X68341688Y-110929731D01*
X68393435Y-110861765D01*
X68437097Y-110755203D01*
X68444338Y-110727686D01*
X68460141Y-110624847D01*
X68471388Y-110483933D01*
X68477990Y-110322759D01*
X68479860Y-110159140D01*
X68476910Y-110010891D01*
X68469052Y-109895827D01*
X68456198Y-109831765D01*
X68448794Y-109824322D01*
X68368871Y-109835499D01*
X68239171Y-109865405D01*
X68077739Y-109908608D01*
X67902617Y-109959673D01*
X67731847Y-110013166D01*
X67583472Y-110063655D01*
X67475534Y-110105704D01*
X67427956Y-110131764D01*
X67379887Y-110227688D01*
X67285797Y-110227688D01*
X67284136Y-110213663D01*
X67266047Y-110163995D01*
X67232883Y-110161146D01*
X67197224Y-110177935D01*
X67112092Y-110238258D01*
X66992365Y-110342652D01*
X66852861Y-110476169D01*
X66708397Y-110623866D01*
X66573792Y-110770798D01*
X66463863Y-110902019D01*
X66418230Y-110963613D01*
X66340468Y-111083819D01*
X66301009Y-111174367D01*
X66290418Y-111265979D01*
X65868890Y-111265979D01*
X65978496Y-111250672D01*
X66076182Y-111233650D01*
X66112605Y-111224539D01*
X66157712Y-111182977D01*
X66210356Y-111104264D01*
X66256105Y-111015314D01*
X66280523Y-110943037D01*
X66277510Y-110917075D01*
X66223108Y-110911451D01*
X66124563Y-110940009D01*
X66000850Y-110992881D01*
X65870943Y-111060200D01*
X65753817Y-111132099D01*
X65668447Y-111198709D01*
X65633809Y-111250164D01*
X65633747Y-111251848D01*
X65546223Y-111251848D01*
X65554003Y-111214856D01*
X65609427Y-111127386D01*
X65721221Y-111033020D01*
X65870960Y-110943029D01*
X66040219Y-110868685D01*
X66191190Y-110825050D01*
X66391681Y-110750594D01*
X66538193Y-110623195D01*
X66623046Y-110459322D01*
X66689678Y-110360556D01*
X66823379Y-110255750D01*
X67014961Y-110149314D01*
X67255236Y-110045655D01*
X67535015Y-109949180D01*
X67845110Y-109864298D01*
X67881296Y-109855714D01*
X68099764Y-109803133D01*
X68256835Y-109760472D01*
X68366571Y-109722464D01*
X68443032Y-109683842D01*
X68500279Y-109639340D01*
X68524723Y-109614706D01*
X68604606Y-109542185D01*
X68657555Y-109529402D01*
X68676131Y-109541615D01*
G37*
D14*
X66075060Y-94625600D02*
X66075060Y-92873000D01*
X67926720Y-89525280D02*
X67073280Y-89525280D01*
X67926720Y-96474720D02*
X67073280Y-96474720D01*
X68924940Y-95697480D02*
X68924940Y-90302520D01*
D12*
X56965000Y-114890000D02*
X63035000Y-114890000D01*
X56965000Y-115440000D02*
X56965000Y-114890000D01*
X56965000Y-118760000D02*
X56965000Y-120560000D01*
X56965000Y-120560000D02*
X58815000Y-120560000D01*
X58815000Y-120560000D02*
X58815000Y-121300000D01*
X63035000Y-114890000D02*
X63035000Y-115440000D01*
X63035000Y-118760000D02*
X63035000Y-120560000D01*
X63035000Y-120560000D02*
X61185000Y-120560000D01*
M02*
